  0
SECTION
  2
HEADER
  9
$ACADVER
  1
AC1015
  9
$ACADMAINTVER
 70
     6
  9
$DWGCODEPAGE
  3
ANSI_1252
  9
$INSBASE
 10
0.0
 20
0.0
 30
0.0
  9
$EXTMIN
 10
0.0
 20
0.0
 30
0.0
  9
$EXTMAX
 10
18669.0
 20
18716.5565105018
 30
0.0
  9
$LIMMIN
 10
0.0
 20
0.0
  9
$LIMMAX
 10
420.0
 20
297.0
  9
$ORTHOMODE
 70
     0
  9
$REGENMODE
 70
     1
  9
$FILLMODE
 70
     1
  9
$QTEXTMODE
 70
     0
  9
$MIRRTEXT
 70
     1
  9
$LTSCALE
 40
1.0
  9
$ATTMODE
 70
     1
  9
$TEXTSIZE
 40
3.175
  9
$TRACEWID
 40
1.0
  9
$TEXTSTYLE
  7
Standard
  9
$CLAYER
  8
0
  9
$CELTYPE
  6
ByLayer
  9
$CECOLOR
 62
   256
  9
$CELTSCALE
 40
1.0
  9
$DISPSILH
 70
     0
  9
$DIMSCALE
 40
1.0
  9
$DIMASZ
 40
3.302
  9
$DIMEXO
 40
0.0
  9
$DIMDLI
 40
3.75
  9
$DIMRND
 40
0.0
  9
$DIMDLE
 40
0.0
  9
$DIMEXE
 40
3.175
  9
$DIMTP
 40
0.0
  9
$DIMTM
 40
0.0
  9
$DIMTXT
 40
3.175
  9
$DIMCEN
 40
2.5
  9
$DIMTSZ
 40
0.0
  9
$DIMTOL
 70
     0
  9
$DIMLIM
 70
     0
  9
$DIMTIH
 70
     1
  9
$DIMTOH
 70
     1
  9
$DIMSE1
 70
     0
  9
$DIMSE2
 70
     0
  9
$DIMTAD
 70
     0
  9
$DIMZIN
 70
     1
  9
$DIMBLK
  1

  9
$DIMASO
 70
     1
  9
$DIMSHO
 70
     1
  9
$DIMPOST
  1

  9
$DIMAPOST
  1

  9
$DIMALT
 70
     0
  9
$DIMALTD
 70
     3
  9
$DIMALTF
 40
0.0393700787
  9
$DIMLFAC
 40
1.0
  9
$DIMTOFL
 70
     1
  9
$DIMTVP
 40
0.0
  9
$DIMTIX
 70
     0
  9
$DIMSOXD
 70
     0
  9
$DIMSAH
 70
     0
  9
$DIMBLK1
  1

  9
$DIMBLK2
  1

  9
$DIMSTYLE
  2
ISO-25
  9
$DIMCLRD
 70
     0
  9
$DIMCLRE
 70
     0
  9
$DIMCLRT
 70
     0
  9
$DIMTFAC
 40
1.0
  9
$DIMGAP
 40
1.524
  9
$DIMJUST
 70
     0
  9
$DIMSD1
 70
     0
  9
$DIMSD2
 70
     0
  9
$DIMTOLJ
 70
     0
  9
$DIMTZIN
 70
     1
  9
$DIMALTZ
 70
     0
  9
$DIMALTTZ
 70
     0
  9
$DIMUPT
 70
     0
  9
$DIMDEC
 70
     2
  9
$DIMTDEC
 70
     2
  9
$DIMALTU
 70
     2
  9
$DIMALTTD
 70
     3
  9
$DIMTXSTY
  7
Standard
  9
$DIMAUNIT
 70
     0
  9
$DIMADEC
 70
     2
  9
$DIMALTRND
 40
0.0
  9
$DIMAZIN
 70
     0
  9
$DIMDSEP
 70
    44
  9
$DIMATFIT
 70
     3
  9
$DIMFRAC
 70
     0
  9
$DIMLDRBLK
  1

  9
$DIMLUNIT
 70
     2
  9
$DIMLWD
 70
    -2
  9
$DIMLWE
 70
    -2
  9
$DIMTMOVE
 70
     0
  9
$LUNITS
 70
     2
  9
$LUPREC
 70
     2
  9
$SKETCHINC
 40
1.0
  9
$FILLETRAD
 40
0.0
  9
$AUNITS
 70
     0
  9
$AUPREC
 70
     2
  9
$MENU
  1
.
  9
$ELEVATION
 40
0.0
  9
$PELEVATION
 40
0.0
  9
$THICKNESS
 40
0.0
  9
$LIMCHECK
 70
     0
  9
$CHAMFERA
 40
0.0
  9
$CHAMFERB
 40
0.0
  9
$CHAMFERC
 40
0.0
  9
$CHAMFERD
 40
0.0
  9
$SKPOLY
 70
     0
  9
$TDCREATE
 40
2461018.583856748
  9
$TDUCREATE
 40
2461018.917190081
  9
$TDUPDATE
 40
2461018.583884121
  9
$TDUUPDATE
 40
2461018.917217454
  9
$TDINDWG
 40
0.0000000116
  9
$TDUSRTIMER
 40
0.0000000116
  9
$USRTIMER
 70
     1
  9
$ANGBASE
 50
0.0
  9
$ANGDIR
 70
     0
  9
$PDMODE
 70
     0
  9
$PDSIZE
 40
-1.0
  9
$PLINEWID
 40
0.0
  9
$SPLFRAME
 70
     0
  9
$SPLINETYPE
 70
     6
  9
$SPLINESEGS
 70
     8
  9
$HANDSEED
  5
190
  9
$SURFTAB1
 70
     6
  9
$SURFTAB2
 70
     6
  9
$SURFTYPE
 70
     6
  9
$SURFU
 70
     6
  9
$SURFV
 70
     6
  9
$UCSBASE
  2

  9
$UCSNAME
  2

  9
$UCSORG
 10
0.0
 20
0.0
 30
0.0
  9
$UCSXDIR
 10
1.0
 20
0.0
 30
0.0
  9
$UCSYDIR
 10
0.0
 20
1.0
 30
0.0
  9
$UCSORTHOREF
  2

  9
$UCSORTHOVIEW
 70
     0
  9
$UCSORGTOP
 10
0.0
 20
0.0
 30
0.0
  9
$UCSORGBOTTOM
 10
0.0
 20
0.0
 30
0.0
  9
$UCSORGLEFT
 10
0.0
 20
0.0
 30
0.0
  9
$UCSORGRIGHT
 10
0.0
 20
0.0
 30
0.0
  9
$UCSORGFRONT
 10
0.0
 20
0.0
 30
0.0
  9
$UCSORGBACK
 10
0.0
 20
0.0
 30
0.0
  9
$PUCSBASE
  2

  9
$PUCSNAME
  2

  9
$PUCSORG
 10
0.0
 20
0.0
 30
0.0
  9
$PUCSXDIR
 10
1.0
 20
0.0
 30
0.0
  9
$PUCSYDIR
 10
0.0
 20
1.0
 30
0.0
  9
$PUCSORTHOREF
  2

  9
$PUCSORTHOVIEW
 70
     0
  9
$PUCSORGTOP
 10
0.0
 20
0.0
 30
0.0
  9
$PUCSORGBOTTOM
 10
0.0
 20
0.0
 30
0.0
  9
$PUCSORGLEFT
 10
0.0
 20
0.0
 30
0.0
  9
$PUCSORGRIGHT
 10
0.0
 20
0.0
 30
0.0
  9
$PUCSORGFRONT
 10
0.0
 20
0.0
 30
0.0
  9
$PUCSORGBACK
 10
0.0
 20
0.0
 30
0.0
  9
$USERI1
 70
     0
  9
$USERI2
 70
     0
  9
$USERI3
 70
     0
  9
$USERI4
 70
     0
  9
$USERI5
 70
     0
  9
$USERR1
 40
0.0
  9
$USERR2
 40
0.0
  9
$USERR3
 40
0.0
  9
$USERR4
 40
0.0
  9
$USERR5
 40
0.0
  9
$WORLDVIEW
 70
     1
  9
$SHADEDGE
 70
     3
  9
$SHADEDIF
 70
    70
  9
$TILEMODE
 70
     1
  9
$MAXACTVP
 70
    64
  9
$PINSBASE
 10
0.0
 20
0.0
 30
0.0
  9
$PLIMCHECK
 70
     0
  9
$PEXTMIN
 10
1.0000000000E+20
 20
1.0000000000E+20
 30
1.0000000000E+20
  9
$PEXTMAX
 10
-1.0000000000E+20
 20
-1.0000000000E+20
 30
-1.0000000000E+20
  9
$PLIMMIN
 10
0.0
 20
0.0
  9
$PLIMMAX
 10
420.0
 20
297.0
  9
$UNITMODE
 70
     0
  9
$VISRETAIN
 70
     1
  9
$PLINEGEN
 70
     0
  9
$PSLTSCALE
 70
     1
  9
$TREEDEPTH
 70
  3020
  9
$CMLSTYLE
  2
Standard
  9
$CMLJUST
 70
     0
  9
$CMLSCALE
 40
20.0
  9
$PROXYGRAPHICS
 70
     1
  9
$MEASUREMENT
 70
     1
  9
$CELWEIGHT
370
    -1
  9
$ENDCAPS
280
     0
  9
$JOINSTYLE
280
     0
  9
$LWDISPLAY
290
     1
  9
$INSUNITS
 70
     4
  9
$HYPERLINKBASE
  1

  9
$STYLESHEET
  1

  9
$XEDIT
290
     1
  9
$CEPSNTYPE
380
     0
  9
$PSTYLEMODE
290
     1
  9
$FINGERPRINTGUID
  2
{f704723b-efa8-4579-a7fa-e382f8bb9a9b}
  9
$VERSIONGUID
  2
{FAEB1C32-E019-11D5-929B-00C0DF256EC4}
  9
$EXTNAMES
290
     1
  9
$PSVPSCALE
 40
0.0
  9
$OLESTARTUP
290
     0
  0
ENDSEC
  0
SECTION
  2
CLASSES
  0
CLASS
  1
ACDBDICTIONARYWDFLT
  2
AcDbDictionaryWithDefault
  3
ObjectDBX Classes
 90
        0
280
     0
281
     0
  0
CLASS
  1
VISUALSTYLE
  2
AcDbVisualStyle
  3
ObjectDBX Classes
 90
     4095
280
     0
281
     0
  0
CLASS
  1
MATERIAL
  2
AcDbMaterial
  3
ObjectDBX Classes
 90
     1153
280
     0
281
     0
  0
CLASS
  1
SCALE
  2
AcDbScale
  3
ObjectDBX Classes
 90
     1153
280
     0
281
     0
  0
CLASS
  1
TABLESTYLE
  2
AcDbTableStyle
  3
ObjectDBX Classes
 90
     4095
280
     0
281
     0
  0
CLASS
  1
MLEADERSTYLE
  2
AcDbMLeaderStyle
  3
ACDB_MLEADERSTYLE_CLASS
 90
     4095
280
     0
281
     0
  0
CLASS
  1
SUN
  2
AcDbSun
  3
SCENEOE
 90
     1153
280
     0
281
     0
  0
CLASS
  1
ACDBPLACEHOLDER
  2
AcDbPlaceHolder
  3
ObjectDBX Classes
 90
        0
280
     0
281
     0
  0
CLASS
  1
LAYOUT
  2
AcDbLayout
  3
ObjectDBX Classes
 90
        0
280
     0
281
     0
  0
ENDSEC
  0
SECTION
  2
TABLES
  0
TABLE
  2
VPORT
  5
8
330
0
100
AcDbSymbolTable
 70
     1
  0
VPORT
  5
29
330
8
100
AcDbSymbolTableRecord
100
AcDbViewportTableRecord
  2
*Active
 70
     0
 10
0.0
 20
0.0
 11
1.0
 21
1.0
 12
9334.5
 22
9358.2782552509
 13
0.0
 23
0.0
 14
10.0
 24
10.0
 15
10.0
 25
10.0
 16
0.0
 26
0.0
 36
1.0
 17
0.0
 27
0.0
 37
0.0
 40
19090.8876407119
 41
0.9974591207
 42
50.0
 43
0.0
 44
0.0
 50
0.0
 51
0.0
 71
     0
 72
   100
 73
     1
 74
     3
 75
     0
 76
     0
 77
     0
 78
     0
281
     0
 65
     1
110
0.0
120
0.0
130
0.0
111
1.0
121
0.0
131
0.0
112
0.0
122
1.0
132
0.0
 79
     0
146
0.0
  0
ENDTAB
  0
TABLE
  2
LTYPE
  5
5
330
0
100
AcDbSymbolTable
 70
     6
  0
LTYPE
  5
14
330
5
100
AcDbSymbolTableRecord
100
AcDbLinetypeTableRecord
  2
ByBlock
 70
     0
  3

 72
    65
 73
     0
 40
0.0
  0
LTYPE
  5
15
330
5
100
AcDbSymbolTableRecord
100
AcDbLinetypeTableRecord
  2
ByLayer
 70
     0
  3

 72
    65
 73
     0
 40
0.0
  0
LTYPE
  5
16
330
5
100
AcDbSymbolTableRecord
100
AcDbLinetypeTableRecord
  2
Continuous
 70
     0
  3
Solid line
 72
    65
 73
     0
 40
0.0
  0
LTYPE
  5
5E
330
5
100
AcDbSymbolTableRecord
100
AcDbLinetypeTableRecord
  2
HIDDEN
 70
     0
  3
Hidden __ __ __ __ __ __ __ __ __ __ __ __ __ __
 72
    65
 73
     2
 40
1.905
 49
1.27
 74
     0
 49
-0.635
 74
     0
  0
LTYPE
  5
5F
330
5
100
AcDbSymbolTableRecord
100
AcDbLinetypeTableRecord
  2
PHANTOM
 70
     0
  3
Phantom ______  __  __  ______  __  __  ______
 72
    65
 73
     6
 40
12.7
 49
6.35
 74
     0
 49
-1.27
 74
     0
 49
1.27
 74
     0
 49
-1.27
 74
     0
 49
1.27
 74
     0
 49
-1.27
 74
     0
  0
LTYPE
  5
60
330
5
100
AcDbSymbolTableRecord
100
AcDbLinetypeTableRecord
  2
CENTER
 70
     0
  3
Center ____ _ ____ _ ____ _ ____ _ ____ _ ____
 72
    65
 73
     4
 40
10.16
 49
6.35
 74
     0
 49
-1.27
 74
     0
 49
1.27
 74
     0
 49
-1.27
 74
     0
  0
LTYPE
  5
61
330
5
100
AcDbSymbolTableRecord
100
AcDbLinetypeTableRecord
  2
CENTERX2
 70
     0
  3
Center (2x) ________  __  ________  __  _____
 72
    65
 73
     4
 40
20.32
 49
12.7
 74
     0
 49
-2.54
 74
     0
 49
2.54
 74
     0
 49
-2.54
 74
     0
  0
LTYPE
  5
62
330
5
100
AcDbSymbolTableRecord
100
AcDbLinetypeTableRecord
  2
DOT2
 70
     0
  3
Dot (.5x) ........................................
 72
    65
 73
     2
 40
0.635
 49
0.0
 74
     0
 49
-0.635
 74
     0
  0
ENDTAB
  0
TABLE
  2
LAYER
  5
2
330
0
100
AcDbSymbolTable
 70
     1
  0
LAYER
  5
10
330
2
100
AcDbSymbolTableRecord
100
AcDbLayerTableRecord
  2
0
 70
     0
 62
     7
  6
Continuous
370
    -3
390
F
  0
ENDTAB
  0
TABLE
  2
STYLE
  5
3
330
0
100
AcDbSymbolTable
 70
     1
  0
STYLE
  5
11
330
3
100
AcDbSymbolTableRecord
100
AcDbTextStyleTableRecord
  2
Standard
 70
     0
 40
0.0
 41
1.0
 50
0.0
 71
     0
 42
3.175
  3
txt
  4

  0
ENDTAB
  0
TABLE
  2
VIEW
  5
6
330
0
100
AcDbSymbolTable
 70
     0
  0
ENDTAB
  0
TABLE
  2
UCS
  5
7
330
0
100
AcDbSymbolTable
 70
     0
  0
ENDTAB
  0
TABLE
  2
APPID
  5
9
330
0
100
AcDbSymbolTable
 70
     1
  0
APPID
  5
12
330
9
100
AcDbSymbolTableRecord
100
AcDbRegAppTableRecord
  2
ACAD
 70
     0
  0
ENDTAB
  0
TABLE
  2
DIMSTYLE
  5
A
330
0
100
AcDbSymbolTable
 70
     1
100
AcDbDimStyleTable
  0
DIMSTYLE
105
27
330
A
100
AcDbSymbolTableRecord
100
AcDbDimStyleTableRecord
  2
ISO-25
 70
     0
 41
2.5
 42
0.625
 43
3.75
 44
1.25
 73
     0
 74
     0
 77
     1
 78
     8
140
2.5
141
2.5
143
0.0393700787
147
0.625
171
     3
172
     1
178
     0
271
     2
272
     2
274
     3
278
    44
283
     0
284
     8
340
11
  0
ENDTAB
  0
TABLE
  2
BLOCK_RECORD
  5
1
330
0
100
AcDbSymbolTable
 70
     1
  0
BLOCK_RECORD
  5
1F
330
1
100
AcDbSymbolTableRecord
100
AcDbBlockTableRecord
  2
*Model_Space
340
22
  0
BLOCK_RECORD
  5
1B
330
1
100
AcDbSymbolTableRecord
100
AcDbBlockTableRecord
  2
*Paper_Space
340
1E
  0
BLOCK_RECORD
  5
23
330
1
100
AcDbSymbolTableRecord
100
AcDbBlockTableRecord
  2
*Paper_Space0
340
26
  0
ENDTAB
  0
ENDSEC
  0
SECTION
  2
BLOCKS
  0
BLOCK
  5
20
330
1F
100
AcDbEntity
  8
0
100
AcDbBlockBegin
  2
*Model_Space
 70
     0
 10
0.0
 20
0.0
 30
0.0
  3
*Model_Space
  1

  0
ENDBLK
  5
21
330
1F
100
AcDbEntity
  8
0
100
AcDbBlockEnd
  0
BLOCK
  5
1C
330
1B
100
AcDbEntity
 67
     1
  8
0
100
AcDbBlockBegin
  2
*Paper_Space
 70
     0
 10
0.0
 20
0.0
 30
0.0
  3
*Paper_Space
  1

  0
ENDBLK
  5
1D
330
1B
100
AcDbEntity
 67
     1
  8
0
100
AcDbBlockEnd
  0
BLOCK
  5
24
330
23
100
AcDbEntity
  8
0
100
AcDbBlockBegin
  2
*Paper_Space0
 70
     0
 10
0.0
 20
0.0
 30
0.0
  3
*Paper_Space0
  1

  0
ENDBLK
  5
25
330
23
100
AcDbEntity
  8
0
100
AcDbBlockEnd
  0
ENDSEC
  0
SECTION
  2
ENTITIES
  0
ARC
  5
63
330
1F
100
AcDbEntity
  8
0
  6
Continuous
 62
     7
370
    25
100
AcDbCircle
 10
13328.3483382934
 20
19998.8840552579
 30
0.0
 40
1362.312726755515
100
AcDbArc
 50
255.0974995641
 51
258.0531103734
  0
ARC
  5
64
330
1F
100
AcDbEntity
  8
0
  6
Continuous
 62
     7
370
    25
100
AcDbCircle
 10
11785.1357943052
 20
14200.1092420558
 30
0.0
 40
4638.295099970266
100
AcDbArc
 50
75.0974173977
 51
76.4942712051
  0
ARC
  5
65
330
1F
100
AcDbEntity
  8
0
  6
Continuous
 62
     7
370
    25
100
AcDbCircle
 10
12813.9503615966
 20
18483.5441965147
 30
0.0
 40
233.0397812683745
100
AcDbArc
 50
76.4942323783
 51
88.7911559264
  0
ARC
  5
66
330
1F
100
AcDbEntity
  8
0
  6
Continuous
 62
     7
370
    25
100
AcDbCircle
 10
12816.5540029872
 20
18606.9308901685
 30
0.0
 40
109.625620333306
100
AcDbArc
 50
88.791158244
 51
109.6320422964
  0
ARC
  5
67
330
1F
100
AcDbEntity
  8
0
  6
Continuous
 62
     7
370
    25
100
AcDbCircle
 10
12925.524754173
 20
18301.4482162825
 30
0.0
 40
433.9623106081557
100
AcDbArc
 50
109.6321324202
 51
117.1264981626
  0
ARC
  5
68
330
1F
100
AcDbEntity
  8
0
  6
Continuous
 62
     7
370
    25
100
AcDbCircle
 10
12798.0554213
 20
18550.2617347918
 30
0.0
 40
154.3972952432852
100
AcDbArc
 50
117.1265694734
 51
153.33682412
  0
ARC
  5
69
330
1F
100
AcDbEntity
  8
0
  6
Continuous
 62
     7
370
    25
100
AcDbCircle
 10
13182.0131888745
 20
18357.4602181916
 30
0.0
 40
584.0436522441371
100
AcDbArc
 50
153.3368267165
 51
166.8034620275
  0
ARC
  5
6A
330
1F
100
AcDbEntity
  8
0
  6
Continuous
 62
     7
370
    25
100
AcDbCircle
 10
13974.0378914131
 20
18171.7433892214
 30
0.0
 40
1397.550794188258
100
AcDbArc
 50
166.8034779428
 51
175.1397731774
  0
ARC
  5
6B
330
1F
100
AcDbEntity
  8
0
  6
Continuous
 62
     7
370
    25
100
AcDbCircle
 10
19627.233361875
 20
17691.0529954958
 30
0.0
 40
7071.145975540417
100
AcDbArc
 50
175.1398258013
 51
177.6465307825
  0
ARC
  5
6C
330
1F
100
AcDbEntity
  8
0
  6
Continuous
 62
     7
370
    25
100
AcDbCircle
 10
-12049.3520298946
 20
18992.8925991385
 30
0.0
 40
24632.17953513753
100
AcDbArc
 50
356.7250678829
 51
357.6466082339
  0
ARC
  5
6D
330
1F
100
AcDbEntity
  8
0
  6
Continuous
 62
     7
370
    25
100
AcDbCircle
 10
428.2640923032
 20
18278.9142742093
 30
0.0
 40
12134.15292525234
100
AcDbArc
 50
355.1600039432
 51
356.7250711276
  0
ARC
  5
6E
330
1F
100
AcDbEntity
  8
0
  6
Continuous
 62
     7
370
    25
100
AcDbCircle
 10
-17322.9460579885
 20
19782.0564978975
 30
0.0
 40
29948.89115918017
100
AcDbArc
 50
354.6236175099
 51
355.1599050273
  0
ARC
  5
6F
330
1F
100
AcDbEntity
  8
0
  6
Continuous
 62
     7
370
    25
100
AcDbCircle
 10
12450.4408083991
 20
16980.0247169372
 30
0.0
 40
43.94261220735966
100
AcDbArc
 50
302.6109915143
 51
354.6235697434
  0
ARC
  5
70
330
1F
100
AcDbEntity
  8
0
  6
Continuous
 62
     7
370
    25
100
AcDbCircle
 10
12488.6892815607
 20
16920.2425300496
 30
0.0
 40
27.02819565235178
100
AcDbArc
 50
122.6110068455
 51
153.2470724006
  0
ARC
  5
71
330
1F
100
AcDbEntity
  8
0
  6
Continuous
 62
     7
370
    25
100
AcDbCircle
 10
12743.2823649179
 20
16791.9011520834
 30
0.0
 40
312.1407127250707
100
AcDbArc
 50
153.247140318
 51
158.3479141464
  0
ARC
  5
72
330
1F
100
AcDbEntity
  8
0
  6
Continuous
 62
     7
370
    25
100
AcDbCircle
 10
12792.3833831484
 20
16772.4082489661
 30
0.0
 40
364.969523640655
100
AcDbArc
 50
158.3477999336
 51
163.6322842736
  0
ARC
  5
73
330
1F
100
AcDbEntity
  8
0
  6
Continuous
 62
     7
370
    25
100
AcDbCircle
 10
12909.1705327778
 20
16738.1075985756
 30
0.0
 40
486.6895833505005
100
AcDbArc
 50
163.6323049337
 51
167.8911828859
  0
ARC
  5
74
330
1F
100
AcDbEntity
  8
0
  6
Continuous
 62
     7
370
    25
100
AcDbCircle
 10
12226.8881778309
 20
16884.4858893622
 30
0.0
 40
211.1182812408523
100
AcDbArc
 50
336.3035368133
 51
347.8912349413
  0
ARC
  5
75
330
1F
100
AcDbEntity
  8
0
  6
Continuous
 62
     7
370
    25
100
AcDbCircle
 10
11906.1933860627
 20
17025.2377496784
 30
0.0
 40
561.341403906615
100
AcDbArc
 50
330.7191925115
 51
336.3035088632
  0
ARC
  5
76
330
1F
100
AcDbEntity
  8
0
  6
Continuous
 62
     7
370
    25
100
AcDbCircle
 10
11867.502113262
 20
17046.9330667012
 30
0.0
 40
605.7001840029093
100
AcDbArc
 50
325.2480411123
 51
330.7192068559
  0
ARC
  5
77
330
1F
100
AcDbEntity
  8
0
  6
Continuous
 62
     7
370
    25
100
AcDbCircle
 10
12020.4683837669
 20
16940.8089699905
 30
0.0
 40
419.5255245704074
100
AcDbArc
 50
318.0432795905
 51
325.2480267718
  0
ARC
  5
78
330
1F
100
AcDbEntity
  8
0
  6
Continuous
 62
     7
370
    25
100
AcDbCircle
 10
12645.920836939
 20
16378.5043006707
 30
0.0
 40
421.5317340737105
100
AcDbArc
 50
138.0433153918
 51
145.7384540754
  0
ARC
  5
79
330
1F
100
AcDbEntity
  8
0
  6
Continuous
 62
     7
370
    25
100
AcDbCircle
 10
12669.0380341997
 20
16362.75767036
 30
0.0
 40
449.5024540380526
100
AcDbArc
 50
145.7384675659
 51
153.0716571786
  0
ARC
  5
7A
330
1F
100
AcDbEntity
  8
0
  6
Continuous
 62
     7
370
    25
100
AcDbCircle
 10
12640.3308991566
 20
16377.3394790299
 30
0.0
 40
417.3041816237077
100
AcDbArc
 50
153.0716556619
 51
160.661716233
  0
ARC
  5
7B
330
1F
100
AcDbEntity
  8
0
  6
Continuous
 62
     7
370
    25
100
AcDbCircle
 10
12510.1631759731
 20
16423.0213048111
 30
0.0
 40
279.3532288706638
100
AcDbArc
 50
160.6617303662
 51
170.9149541046
  0
ARC
  5
7C
330
1F
100
AcDbEntity
  8
0
  6
Continuous
 62
     7
370
    25
100
AcDbCircle
 10
11992.0426602291
 20
16505.8722667521
 30
0.0
 40
245.3496877683139
100
AcDbArc
 50
334.9125859458
 51
350.914909513
  0
ARC
  5
7D
330
1F
100
AcDbEntity
  8
0
  6
Continuous
 62
     7
370
    25
100
AcDbCircle
 10
10864.4540981138
 20
17033.7724120918
 30
0.0
 40
1490.393674486343
100
AcDbArc
 50
330.6969712183
 51
334.9125483658
  0
ARC
  5
7E
330
1F
100
AcDbEntity
  8
0
  6
Continuous
 62
     7
370
    25
100
AcDbCircle
 10
9966.800703203
 20
17537.5741932954
 30
0.0
 40
2519.76136979201
100
AcDbArc
 50
327.3268513362
 51
330.6969753361
  0
ARC
  5
7F
330
1F
100
AcDbEntity
  8
0
  6
Continuous
 62
     7
370
    25
100
AcDbCircle
 10
5476.6842215211
 20
20417.2088289954
 30
0.0
 40
7853.938124849276
100
AcDbArc
 50
325.8825478098
 51
327.3268406999
  0
ARC
  5
80
330
1F
100
AcDbEntity
  8
0
  6
Continuous
 62
     7
370
    25
100
AcDbCircle
 10
4380.2875324371
 20
21160.0082086766
 30
0.0
 40
9178.263091871753
100
AcDbArc
 50
324.858585811
 51
325.8825691686
  0
ARC
  5
81
330
1F
100
AcDbEntity
  8
0
  6
Continuous
 62
     7
370
    25
100
AcDbCircle
 10
7935.8879172199
 20
18657.24242127
 30
0.0
 40
4830.145029672216
100
AcDbArc
 50
323.2030591827
 51
324.8586492283
  0
ARC
  5
82
330
1F
100
AcDbEntity
  8
0
  6
Continuous
 62
     7
370
    25
100
AcDbCircle
 10
1133.6869205428
 20
23745.3753591067
 30
0.0
 40
13324.7924733447
100
AcDbArc
 50
322.6883048876
 51
323.2030493052
  0
ARC
  5
83
330
1F
100
AcDbEntity
  8
0
  6
Continuous
 62
     7
370
    25
100
AcDbCircle
 10
11720.9513018098
 20
15676.6255402271
 30
0.0
 40
13.33535105664352
100
AcDbArc
 50
258.283000501
 51
322.6882537173
  0
ARC
  5
84
330
1F
100
AcDbEntity
  8
0
  6
Continuous
 62
     7
370
    25
100
AcDbCircle
 10
11747.9731030588
 20
15806.9118140078
 30
0.0
 40
146.3943262457593
100
AcDbArc
 50
253.9073199702
 51
258.282810738
  0
ARC
  5
85
330
1F
100
AcDbEntity
  8
0
  6
Continuous
 62
     7
370
    25
100
AcDbCircle
 10
11881.1692805535
 20
16268.603688143
 30
0.0
 40
626.9155103173493
100
AcDbArc
 50
252.4218142841
 51
253.9073584498
  0
ARC
  5
86
330
1F
100
AcDbEntity
  8
0
  6
Continuous
 62
     7
370
    25
100
AcDbCircle
 10
11902.811010555
 20
16336.9213168464
 30
0.0
 40
698.5790496368072
100
AcDbArc
 50
250.9471408711
 51
252.4219138796
  0
ARC
  5
87
330
1F
100
AcDbEntity
  8
0
  6
Continuous
 62
     7
370
    25
100
AcDbCircle
 10
11865.4172022212
 20
16228.6464104425
 30
0.0
 40
584.0288324459228
100
AcDbArc
 50
249.2603834648
 51
250.9471407571
  0
ARC
  5
88
330
1F
100
AcDbEntity
  8
0
  6
Continuous
 62
     7
370
    25
100
AcDbCircle
 10
11644.411585591
 20
15644.992591344
 30
0.0
 40
40.06672364340822
100
AcDbArc
 50
69.2605001954
 51
143.0392085776
  0
ARC
  5
89
330
1F
100
AcDbEntity
  8
0
  6
Continuous
 62
     7
370
    25
100
AcDbCircle
 10
14338.5526234281
 20
13617.703422246
 30
0.0
 40
3411.757294692229
100
AcDbArc
 50
143.0392441886
 51
146.1405900055
  0
ARC
  5
8A
330
1F
100
AcDbEntity
  8
0
  6
Continuous
 62
     7
370
    25
100
AcDbCircle
 10
13295.1672372202
 20
14317.7546803333
 30
0.0
 40
2155.284124227969
100
AcDbArc
 50
146.1405413763
 51
151.0731753936
  0
ARC
  5
8B
330
1F
100
AcDbEntity
  8
0
  6
Continuous
 62
     7
370
    25
100
AcDbCircle
 10
11757.668271638
 20
15167.4386677511
 30
0.0
 40
398.6208247765758
100
AcDbArc
 50
151.0731172167
 51
168.2853374054
  0
LINE
  5
8C
330
1F
100
AcDbEntity
  8
0
  6
Continuous
 62
     7
370
    25
100
AcDbLine
 10
11350.6526606
 20
15167.8475916
 30
0.0
 11
11367.3503666
 21
15248.3737958
 31
0.0
  0
LINE
  5
8D
330
1F
100
AcDbEntity
  8
0
  6
Continuous
 62
     7
370
    25
100
AcDbLine
 10
11030.9368408
 20
15318.7310338
 30
0.0
 11
11350.6526606
 21
15167.8475916
 31
0.0
  0
ARC
  5
8E
330
1F
100
AcDbEntity
  8
0
  6
Continuous
 62
     7
370
    25
100
AcDbCircle
 10
5131.7926303108
 20
2818.6619369175
 30
0.0
 40
13822.14273703553
100
AcDbArc
 50
64.7360197932
 51
65.5839934605
  0
ARC
  5
8F
330
1F
100
AcDbEntity
  8
0
  6
Continuous
 62
     7
370
    25
100
AcDbCircle
 10
10523.3623621448
 20
14695.4896961588
 30
0.0
 40
778.8279054480663
100
AcDbArc
 50
65.5840252393
 51
72.4750884372
  0
ARC
  5
90
330
1F
100
AcDbEntity
  8
0
  6
Continuous
 62
     7
370
    25
100
AcDbCircle
 10
10705.4576444193
 20
15272.1485547586
 30
0.0
 40
174.1014127028083
100
AcDbArc
 50
72.4750114113
 51
89.8670284206
  0
ARC
  5
91
330
1F
100
AcDbEntity
  8
0
  6
Continuous
 62
     7
370
    25
100
AcDbCircle
 10
10705.7391306644
 20
15393.4719215525
 30
0.0
 40
52.77771936676569
100
AcDbArc
 50
89.866940982
 51
132.1447197591
  0
ARC
  5
92
330
1F
100
AcDbEntity
  8
0
  6
Continuous
 62
     7
370
    25
100
AcDbCircle
 10
10611.5040321239
 20
15497.600657134
 30
0.0
 40
87.66104796881834
100
AcDbArc
 50
292.7440087628
 51
312.1446393143
  0
ARC
  5
93
330
1F
100
AcDbEntity
  8
0
  6
Continuous
 62
     7
370
    25
100
AcDbCircle
 10
10593.2926825372
 20
15541.042571264
 30
0.0
 40
134.765752161094
100
AcDbArc
 50
278.6872911359
 51
292.7440025916
  0
ARC
  5
94
330
1F
100
AcDbEntity
  8
0
  6
Continuous
 62
     7
370
    25
100
AcDbCircle
 10
10581.6396948109
 20
15617.3092151068
 30
0.0
 40
211.9175057768865
100
AcDbArc
 50
267.7589265819
 51
278.687254683
  0
ARC
  5
95
330
1F
100
AcDbEntity
  8
0
  6
Continuous
 62
     7
370
    25
100
AcDbCircle
 10
10594.6633271528
 20
15950.103444627
 30
0.0
 40
544.9664724489406
100
AcDbArc
 50
262.3605958989
 51
267.7589223869
  0
LINE
  5
96
330
1F
100
AcDbEntity
  8
0
  6
Continuous
 62
     7
370
    25
100
AcDbLine
 10
10415.0041128
 20
15424.3541144
 30
0.0
 11
10522.2165476
 21
15409.9739044
 31
0.0
  0
LINE
  5
97
330
1F
100
AcDbEntity
  8
0
  6
Continuous
 62
     7
370
    25
100
AcDbLine
 10
10362.8004834
 20
15302.5679724
 30
0.0
 11
10415.0041128
 21
15424.3541144
 31
0.0
  0
ARC
  5
98
330
1F
100
AcDbEntity
  8
0
  6
Continuous
 62
     7
370
    25
100
AcDbCircle
 10
9631.1765138528
 20
15616.1779649274
 30
0.0
 40
796.0055654510127
100
AcDbArc
 50
332.9225302977
 51
336.7976474914
  0
ARC
  5
99
330
1F
100
AcDbEntity
  8
0
  6
Continuous
 62
     7
370
    25
100
AcDbCircle
 10
9705.2592629297
 20
15578.3040934452
 30
0.0
 40
712.8028981166061
100
AcDbArc
 50
328.7129504027
 51
332.9225708021
  0
ARC
  5
9A
330
1F
100
AcDbEntity
  8
0
  6
Continuous
 62
     7
370
    25
100
AcDbCircle
 10
9788.1569234853
 20
15527.9263240954
 30
0.0
 40
615.7980437555115
100
AcDbArc
 50
324.5496780831
 51
328.7130189389
  0
ARC
  5
9B
330
1F
100
AcDbEntity
  8
0
  6
Continuous
 62
     7
370
    25
100
AcDbCircle
 10
10222.8285946283
 20
15218.4464489215
 30
0.0
 40
82.20901197933875
100
AcDbArc
 50
306.1748984783
 51
324.549602144
  0
ARC
  5
9C
330
1F
100
AcDbEntity
  8
0
  6
Continuous
 62
     7
370
    25
100
AcDbCircle
 10
10304.0406542227
 20
15107.3823378419
 30
0.0
 40
55.37963360405908
100
AcDbArc
 50
126.1749953676
 51
158.1685149145
  0
ARC
  5
9D
330
1F
100
AcDbEntity
  8
0
  6
Continuous
 62
     7
370
    25
100
AcDbCircle
 10
10542.2425723035
 20
15011.9569160107
 30
0.0
 40
311.9847093702715
100
AcDbArc
 50
158.1685862168
 51
167.0703920689
  0
ARC
  5
9E
330
1F
100
AcDbEntity
  8
0
  6
Continuous
 62
     7
370
    25
100
AcDbCircle
 10
10822.8369036337
 20
14947.5405025808
 30
0.0
 40
599.8781846235621
100
AcDbArc
 50
167.0704749336
 51
173.572946449
  0
ARC
  5
9F
330
1F
100
AcDbEntity
  8
0
  6
Continuous
 62
     7
370
    25
100
AcDbCircle
 10
12373.4265847422
 20
14772.8734104123
 30
0.0
 40
2160.274593311704
100
AcDbArc
 50
173.5729676983
 51
176.0789852123
  0
ARC
  5
A0
330
1F
100
AcDbEntity
  8
0
  6
Continuous
 62
     7
370
    25
100
AcDbCircle
 10
3638.5541153313
 20
15371.5762304326
 30
0.0
 40
6595.09188237476
100
AcDbArc
 50
354.9431609608
 51
356.0789831946
  0
ARC
  5
A1
330
1F
100
AcDbEntity
  8
0
  6
Continuous
 62
     7
370
    25
100
AcDbCircle
 10
10046.0055562536
 20
14804.5913897763
 30
0.0
 40
162.6035786689899
100
AcDbArc
 50
338.5814048082
 51
354.9431231944
  0
ARC
  5
A2
330
1F
100
AcDbEntity
  8
0
  6
Continuous
 62
     7
370
    25
100
AcDbCircle
 10
10164.8101685141
 20
14757.9879477939
 30
0.0
 40
34.98533272052497
100
AcDbArc
 50
290.5060083129
 51
338.581310888
  0
ARC
  5
A3
330
1F
100
AcDbEntity
  8
0
  6
Continuous
 62
     7
370
    25
100
AcDbCircle
 10
10140.1599438907
 20
14823.8974565118
 30
0.0
 40
105.3536275230027
100
AcDbArc
 50
269.3432121127
 51
290.5059018585
  0
ARC
  5
A4
330
1F
100
AcDbEntity
  8
0
  6
Continuous
 62
     7
370
    25
100
AcDbCircle
 10
10138.0874714898
 20
14643.1207264294
 30
0.0
 40
75.43498185591963
100
AcDbArc
 50
89.3431225812
 51
122.8049120101
  0
ARC
  5
A5
330
1F
100
AcDbEntity
  8
0
  6
Continuous
 62
     7
370
    25
100
AcDbCircle
 10
10189.2081720451
 20
14563.811649294
 30
0.0
 40
169.7920469931804
100
AcDbArc
 50
122.8048735742
 51
141.0563791523
  0
ARC
  5
A6
330
1F
100
AcDbEntity
  8
0
  6
Continuous
 62
     7
370
    25
100
AcDbCircle
 10
10556.9483403101
 20
14266.6207729371
 30
0.0
 40
642.6083414938266
100
AcDbArc
 50
141.0564188405
 51
149.0573872205
  0
ARC
  5
A7
330
1F
100
AcDbEntity
  8
0
  6
Continuous
 62
     7
370
    25
100
AcDbCircle
 10
17654.8095358934
 20
10011.4664994397
 30
0.0
 40
8918.233480601502
100
AcDbArc
 50
149.0573925674
 51
150.2273622216
  0
ARC
  5
A8
330
1F
100
AcDbEntity
  8
0
  6
Continuous
 62
     7
370
    25
100
AcDbCircle
 10
13518.9524469452
 20
12377.4683622484
 30
0.0
 40
4153.437716353385
100
AcDbArc
 50
150.2273191719
 51
152.0080361641
  0
ARC
  5
A9
330
1F
100
AcDbEntity
  8
0
  6
Continuous
 62
     7
370
    25
100
AcDbCircle
 10
12755.4741002422
 20
12783.2791882258
 30
0.0
 40
3288.809696703026
100
AcDbArc
 50
152.0080290205
 51
154.129287384
  0
ARC
  5
AA
330
1F
100
AcDbEntity
  8
0
  6
Continuous
 62
     7
370
    25
100
AcDbCircle
 10
12602.1420182331
 20
12857.6389933017
 30
0.0
 40
3118.398112652775
100
AcDbArc
 50
154.1293300337
 51
156.0111103266
  0
ARC
  5
AB
330
1F
100
AcDbEntity
  8
0
  6
Continuous
 62
     7
370
    25
100
AcDbCircle
 10
9950.4972917788
 20
14037.6113334642
 30
0.0
 40
216.0620744102853
100
AcDbArc
 50
156.0111352468
 51
169.2397708713
  0
ARC
  5
AC
330
1F
100
AcDbEntity
  8
0
  6
Continuous
 62
     7
370
    25
100
AcDbCircle
 10
9123.8750343604
 20
14194.7024974682
 30
0.0
 40
625.3545823465412
100
AcDbArc
 50
343.9686511666
 51
349.2398499341
  0
ARC
  5
AD
330
1F
100
AcDbEntity
  8
0
  6
Continuous
 62
     7
370
    25
100
AcDbCircle
 10
9688.3720390071
 20
14032.5012854884
 30
0.0
 40
38.01643321708796
100
AcDbArc
 50
303.3703351494
 51
343.9686421143
  0
ARC
  5
AE
330
1F
100
AcDbEntity
  8
0
  6
Continuous
 62
     7
370
    25
100
AcDbCircle
 10
9698.7968287656
 20
14016.6734893296
 30
0.0
 40
19.0639829071122
100
AcDbArc
 50
237.8565218599
 51
303.3702476033
  0
ARC
  5
AF
330
1F
100
AcDbEntity
  8
0
  6
Continuous
 62
     7
370
    25
100
AcDbCircle
 10
9782.0799935012
 20
14149.2146808011
 30
0.0
 40
175.5991322029208
100
AcDbArc
 50
225.0000146969
 51
237.8565189071
  0
ARC
  5
B0
330
1F
100
AcDbEntity
  8
0
  6
Continuous
 62
     7
370
    25
100
AcDbCircle
 10
9642.9259948322
 20
14010.0606574624
 30
0.0
 40
21.19435741733182
100
AcDbArc
 50
44.9999253914
 51
115.2221191841
  0
ARC
  5
B1
330
1F
100
AcDbEntity
  8
0
  6
Continuous
 62
     7
370
    25
100
AcDbCircle
 10
9650.3625290898
 20
13994.2731087722
 30
0.0
 40
38.64568216390862
100
AcDbArc
 50
115.2221621008
 51
160.3411174065
  0
ARC
  5
B2
330
1F
100
AcDbEntity
  8
0
  6
Continuous
 62
     7
370
    25
100
AcDbCircle
 10
10428.8295694278
 20
13716.170689567
 30
0.0
 40
865.2966898209265
100
AcDbArc
 50
160.3410564285
 51
165.8305463397
  0
ARC
  5
B3
330
1F
100
AcDbEntity
  8
0
  6
Continuous
 62
     7
370
    25
100
AcDbCircle
 10
104040.944483169
 20
-9918.2980536165
 30
0.0
 40
97414.84962196022
100
AcDbArc
 50
165.830513114
 51
166.0205058753
  0
ARC
  5
B4
330
1F
100
AcDbEntity
  8
0
  6
Continuous
 62
     7
370
    25
100
AcDbCircle
 10
-15342.5150266046
 20
19801.9549844719
 30
0.0
 40
25612.3987629808
100
AcDbArc
 50
345.6937077036
 51
346.0205226085
  0
ARC
  5
B5
330
1F
100
AcDbEntity
  8
0
  6
Continuous
 62
     7
370
    25
100
AcDbCircle
 10
-3711.1874754837
 20
16835.8147723386
 30
0.0
 40
13608.82561331517
100
AcDbArc
 50
345.169074181
 51
345.693673422
  0
ARC
  5
B6
330
1F
100
AcDbEntity
  8
0
  6
Continuous
 62
     7
370
    25
100
AcDbCircle
 10
-55542.7330255235
 20
30560.3004293321
 30
0.0
 40
67226.64560493756
100
AcDbArc
 50
345.0752831657
 51
345.1690190558
  0
ARC
  5
B7
330
1F
100
AcDbEntity
  8
0
  6
Continuous
 62
     7
370
    25
100
AcDbCircle
 10
9400.0820111598
 20
13250.3508166852
 30
0.0
 40
16.50068260286683
100
AcDbArc
 50
315.0000043092
 51
345.0753572482
  0
ARC
  5
B8
330
1F
100
AcDbEntity
  8
0
  6
Continuous
 62
     7
370
    25
100
AcDbCircle
 10
9405.6548016759
 20
13244.7780396037
 30
0.0
 40
8.61957617447982
100
AcDbArc
 50
261.2051455779
 51
314.9999451027
  0
ARC
  5
B9
330
1F
100
AcDbEntity
  8
0
  6
Continuous
 62
     7
370
    25
100
AcDbCircle
 10
12269.2536254393
 20
31753.5260872274
 30
0.0
 40
18737.57983866291
100
AcDbArc
 50
260.949849973
 51
261.2051598609
  0
ARC
  5
BA
330
1F
100
AcDbEntity
  8
0
  6
Continuous
 62
     7
370
    25
100
AcDbCircle
 10
10106.8501121457
 20
18177.5246360384
 30
0.0
 40
4990.441796261641
100
AcDbArc
 50
259.8503932498
 51
260.9497762345
  0
ARC
  5
BB
330
1F
100
AcDbEntity
  8
0
  6
Continuous
 62
     7
370
    25
100
AcDbCircle
 10
10893.9979790717
 20
22574.4790167116
 30
0.0
 40
9457.298587129639
100
AcDbArc
 50
259.1690176445
 51
259.850377047
  0
ARC
  5
BC
330
1F
100
AcDbEntity
  8
0
  6
Continuous
 62
     7
370
    25
100
AcDbCircle
 10
8500.1504550447
 20
10062.2521573676
 30
0.0
 40
3281.866493360466
100
AcDbArc
 50
79.1690218772
 51
81.3633831741
  0
ARC
  5
BD
330
1F
100
AcDbEntity
  8
0
  6
Continuous
 62
     7
370
    25
100
AcDbCircle
 10
8627.0748875195
 20
10897.8868416582
 30
0.0
 40
2436.647505672401
100
AcDbArc
 50
81.3633892165
 51
84.106580129
  0
ARC
  5
BE
330
1F
100
AcDbEntity
  8
0
  6
Continuous
 62
     7
370
    25
100
AcDbCircle
 10
8678.4037551413
 20
11395.1449484852
 30
0.0
 40
1936.747238162507
100
AcDbArc
 50
84.1065788861
 51
87.0223183757
  0
ARC
  5
BF
330
1F
100
AcDbEntity
  8
0
  6
Continuous
 62
     7
370
    25
100
AcDbCircle
 10
8758.6248618712
 20
12937.3539351916
 30
0.0
 40
392.4532296775273
100
AcDbArc
 50
87.0222792417
 51
96.5446256653
  0
ARC
  5
C0
330
1F
100
AcDbEntity
  8
0
  6
Continuous
 62
     7
370
    25
100
AcDbCircle
 10
8646.7533573974
 20
13912.4847927941
 30
0.0
 40
589.0738575503084
100
AcDbArc
 50
270.6758371765
 51
276.5446212457
  0
ARC
  5
C1
330
1F
100
AcDbEntity
  8
0
  6
Continuous
 62
     7
370
    25
100
AcDbCircle
 10
8650.7675484524
 20
13572.2266291648
 30
0.0
 40
248.7920160633516
100
AcDbArc
 50
259.500460269
 51
270.6757309776
  0
ARC
  5
C2
330
1F
100
AcDbEntity
  8
0
  6
Continuous
 62
     7
370
    25
100
AcDbCircle
 10
8644.1324441573
 20
13536.4254340233
 30
0.0
 40
212.3811635251243
100
AcDbArc
 50
247.2307425068
 51
259.5004715313
  0
ARC
  5
C3
330
1F
100
AcDbEntity
  8
0
  6
Continuous
 62
     7
370
    25
100
AcDbCircle
 10
8690.3132480094
 20
13646.4497294051
 30
0.0
 40
331.7043055329733
100
AcDbArc
 50
238.445369608
 51
247.2306948654
  0
ARC
  5
C4
330
1F
100
AcDbEntity
  8
0
  6
Continuous
 62
     7
370
    25
100
AcDbCircle
 10
8113.0056788616
 20
12706.3839889476
 30
0.0
 40
771.4763803826633
100
AcDbArc
 50
58.4453131854
 51
62.9369563127
  0
ARC
  5
C5
330
1F
100
AcDbEntity
  8
0
  6
Continuous
 62
     7
370
    25
100
AcDbCircle
 10
8432.9859347964
 20
13332.6763100703
 30
0.0
 40
68.17741430559632
100
AcDbArc
 50
62.9368538662
 51
89.5299836044
  0
ARC
  5
C6
330
1F
100
AcDbEntity
  8
0
  6
Continuous
 62
     7
370
    25
100
AcDbCircle
 10
8432.8934184032
 20
13321.4158643073
 30
0.0
 40
79.43824012104521
100
AcDbArc
 50
89.5298818179
 51
113.3446160316
  0
ARC
  5
C7
330
1F
100
AcDbEntity
  8
0
  6
Continuous
 62
     7
370
    25
100
AcDbCircle
 10
8882.0982251832
 20
12280.6039200989
 30
0.0
 40
1213.04948814273
100
AcDbArc
 50
113.3445832771
 51
116.6008270728
  0
ARC
  5
C8
330
1F
100
AcDbEntity
  8
0
  6
Continuous
 62
     7
370
    25
100
AcDbCircle
 10
8168.447040803
 20
13705.6824364476
 30
0.0
 40
380.7343085898642
100
AcDbArc
 50
289.056000054
 51
296.6007318237
  0
ARC
  5
C9
330
1F
100
AcDbEntity
  8
0
  6
Continuous
 62
     7
370
    25
100
AcDbCircle
 10
8167.7536356272
 20
13707.6896519757
 30
0.0
 40
382.8579198795528
100
AcDbArc
 50
281.5426424396
 51
289.0560099959
  0
ARC
  5
CA
330
1F
100
AcDbEntity
  8
0
  6
Continuous
 62
     7
370
    25
100
AcDbCircle
 10
8174.1253339936
 20
13676.4886709588
 30
0.0
 40
351.0129869023318
100
AcDbArc
 50
273.7145648735
 51
281.5427062817
  0
ARC
  5
CB
330
1F
100
AcDbEntity
  8
0
  6
Continuous
 62
     7
370
    25
100
AcDbCircle
 10
8181.3998140519
 20
13564.4344250878
 30
0.0
 40
238.722862324654
100
AcDbArc
 50
263.264271256
 51
273.7146480563
  0
ARC
  5
CC
330
1F
100
AcDbEntity
  8
0
  6
Continuous
 62
     7
370
    25
100
AcDbCircle
 10
8110.6454288115
 20
12965.3534614976
 30
0.0
 40
364.5218508447784
100
AcDbArc
 50
83.264304691
 51
91.551848103
  0
ARC
  5
CD
330
1F
100
AcDbEntity
  8
0
  6
Continuous
 62
     7
370
    25
100
AcDbCircle
 10
8102.4565906433
 20
13267.6225483175
 30
0.0
 40
62.14186156400292
100
AcDbArc
 50
91.5519217703
 51
122.2222036888
  0
ARC
  5
CE
330
1F
100
AcDbEntity
  8
0
  6
Continuous
 62
     7
370
    25
100
AcDbCircle
 10
8115.874912902
 20
13246.3331246436
 30
0.0
 40
87.30713391692598
100
AcDbArc
 50
122.2222768973
 51
146.4758477939
  0
ARC
  5
CF
330
1F
100
AcDbEntity
  8
0
  6
Continuous
 62
     7
370
    25
100
AcDbCircle
 10
8842.0119358643
 20
12765.2748376166
 30
0.0
 40
958.3364397578626
100
AcDbArc
 50
146.4759293439
 51
150.6614935876
  0
ARC
  5
D0
330
1F
100
AcDbEntity
  8
0
  6
Continuous
 62
     7
370
    25
100
AcDbCircle
 10
7517.2048741619
 20
13509.8921468233
 30
0.0
 40
561.3900777142187
100
AcDbArc
 50
321.350866091
 51
330.6615758269
  0
ARC
  5
D1
330
1F
100
AcDbEntity
  8
0
  6
Continuous
 62
     7
370
    25
100
AcDbCircle
 10
7882.2298056963
 20
13217.9835594729
 30
0.0
 40
93.99963706470682
100
AcDbArc
 50
286.4489424983
 51
321.350939295
  0
ARC
  5
D2
330
1F
100
AcDbEntity
  8
0
  6
Continuous
 62
     7
370
    25
100
AcDbCircle
 10
7904.6798348256
 20
13141.9446982266
 30
0.0
 40
14.71589202495683
100
AcDbArc
 50
169.5977067425
 51
286.4490241396
  0
ARC
  5
D3
330
1F
100
AcDbEntity
  8
0
  6
Continuous
 62
     7
370
    25
100
AcDbCircle
 10
8109.430901887
 20
13104.3574289241
 30
0.0
 40
222.8884220965158
100
AcDbArc
 50
152.6555772884
 51
169.5977206101
  0
ARC
  5
D4
330
1F
100
AcDbEntity
  8
0
  6
Continuous
 62
     7
370
    25
100
AcDbCircle
 10
7514.6514935669
 20
13411.9302361707
 30
0.0
 40
446.7111420603635
100
AcDbArc
 50
332.6555733683
 51
350.9576347126
  0
ARC
  5
D5
330
1F
100
AcDbEntity
  8
0
  6
Continuous
 62
     7
370
    25
100
AcDbCircle
 10
7899.0465620473
 20
13350.7566909101
 30
0.0
 40
57.47885754147909
100
AcDbArc
 50
350.9575916765
 51
72.9695193114
  0
ARC
  5
D6
330
1F
100
AcDbEntity
  8
0
  6
Continuous
 62
     7
370
    25
100
AcDbCircle
 10
7890.5592895517
 20
13323.0487471822
 30
0.0
 40
86.45753832656993
100
AcDbArc
 50
72.9695299212
 51
135.566780125
  0
ARC
  5
D7
330
1F
100
AcDbEntity
  8
0
  6
Continuous
 62
     7
370
    25
100
AcDbCircle
 10
8226.1198473685
 20
12994.0632931075
 30
0.0
 40
556.3855295709958
100
AcDbArc
 50
135.5668588357
 51
151.4419157542
  0
ARC
  5
D8
330
1F
100
AcDbEntity
  8
0
  6
Continuous
 62
     7
370
    25
100
AcDbCircle
 10
7079.4833460597
 20
13618.1414839575
 30
0.0
 40
749.0832959582083
100
AcDbArc
 50
326.0976843542
 51
331.44195333
  0
ARC
  5
D9
330
1F
100
AcDbEntity
  8
0
  6
Continuous
 62
     7
370
    25
100
AcDbCircle
 10
7456.1881399219
 20
13364.9840403777
 30
0.0
 40
295.2163628615267
100
AcDbArc
 50
315.3854884922
 51
326.0977209586
  0
ARC
  5
DA
330
1F
100
AcDbEntity
  8
0
  6
Continuous
 62
     7
370
    25
100
AcDbCircle
 10
7518.9823134189
 20
13303.0286973575
 30
0.0
 40
207.0031396251809
100
AcDbArc
 50
302.2679665967
 51
315.3855868091
  0
ARC
  5
DB
330
1F
100
AcDbEntity
  8
0
  6
Continuous
 62
     7
370
    25
100
AcDbCircle
 10
7527.7206585579
 20
13289.1887578428
 30
0.0
 40
190.6354091309443
100
AcDbArc
 50
288.3144786542
 51
302.2679856987
  0
ARC
  5
DC
330
1F
100
AcDbEntity
  8
0
  6
Continuous
 62
     7
370
    25
100
AcDbCircle
 10
7645.495309465
 20
12933.3727240883
 30
0.0
 40
184.165762522885
100
AcDbArc
 50
108.314476027
 51
131.2757453224
  0
ARC
  5
DD
330
1F
100
AcDbEntity
  8
0
  6
Continuous
 62
     7
370
    25
100
AcDbCircle
 10
7816.2398026906
 20
12738.8515200303
 30
0.0
 40
442.9942400807682
100
AcDbArc
 50
131.2756758579
 51
143.1943590823
  0
ARC
  5
DE
330
1F
100
AcDbEntity
  8
0
  6
Continuous
 62
     7
370
    25
100
AcDbCircle
 10
8221.3872923289
 20
12435.6990511882
 30
0.0
 40
949.0040302279377
100
AcDbArc
 50
143.1943007099
 51
150.9599475134
  0
ARC
  5
DF
330
1F
100
AcDbEntity
  8
0
  6
Continuous
 62
     7
370
    25
100
AcDbCircle
 10
11268.9945036205
 20
10743.5938773502
 30
0.0
 40
4434.851077022313
100
AcDbArc
 50
150.9599156872
 51
153.433851352
  0
LINE
  5
E0
330
1F
100
AcDbEntity
  8
0
  6
Continuous
 62
     7
370
    25
100
AcDbLine
 10
7233.3257162
 20
12588.8911036
 30
0.0
 11
7302.3811026
 21
12726.9955518
 31
0.0
  0
LINE
  5
E1
330
1F
100
AcDbEntity
  8
0
  6
Continuous
 62
     7
370
    25
100
AcDbLine
 10
7175.4980696
 20
12684.7075744
 30
0.0
 11
7233.3257162
 21
12588.8911036
 31
0.0
  0
ARC
  5
E2
330
1F
100
AcDbEntity
  8
0
  6
Continuous
 62
     7
370
    25
100
AcDbCircle
 10
6780.9838132995
 20
12446.6082619496
 30
0.0
 40
460.7958127128255
100
AcDbArc
 50
31.1120414275
 51
36.3369694764
  0
ARC
  5
E3
330
1F
100
AcDbEntity
  8
0
  6
Continuous
 62
     7
370
    25
100
AcDbCircle
 10
6998.8316458229
 20
12606.8497386921
 30
0.0
 40
190.3609610318815
100
AcDbArc
 50
36.3370130757
 51
46.4507109532
  0
ARC
  5
E4
330
1F
100
AcDbEntity
  8
0
  6
Continuous
 62
     7
370
    25
100
AcDbCircle
 10
7075.2474551602
 20
12687.2366515559
 30
0.0
 40
79.4491416597229
100
AcDbArc
 50
46.4506805017
 51
62.3683888093
  0
ARC
  5
E5
330
1F
100
AcDbEntity
  8
0
  6
Continuous
 62
     7
370
    25
100
AcDbCircle
 10
7108.4513665857
 20
12750.6646263613
 30
0.0
 40
7.855791955527555
100
AcDbArc
 50
62.3683630769
 51
148.2825479035
  0
ARC
  5
E6
330
1F
100
AcDbEntity
  8
0
  6
Continuous
 62
     7
370
    25
100
AcDbCircle
 10
7154.5443717569
 20
12722.1775202088
 30
0.0
 40
62.0414020623935
100
AcDbArc
 50
148.2824794619
 51
167.5595475736
  0
ARC
  5
E7
330
1F
100
AcDbEntity
  8
0
  6
Continuous
 62
     7
370
    25
100
AcDbCircle
 10
12353.0700085439
 20
11575.3528374583
 30
0.0
 40
5385.562384391415
100
AcDbArc
 50
167.5594814257
 51
168.3554311945
  0
ARC
  5
E8
330
1F
100
AcDbEntity
  8
0
  6
Continuous
 62
     7
370
    25
100
AcDbCircle
 10
10738.0647595097
 20
11908.1706893207
 30
0.0
 40
3736.620397268096
100
AcDbArc
 50
168.3553632033
 51
169.7199033639
  0
ARC
  5
E9
330
1F
100
AcDbEntity
  8
0
  6
Continuous
 62
     7
370
    25
100
AcDbCircle
 10
12954.9835014974
 20
11506.0813988916
 30
0.0
 40
5989.708168761015
100
AcDbArc
 50
169.7198810677
 51
170.6780901009
  0
LINE
  5
EA
330
1F
100
AcDbEntity
  8
0
  6
Continuous
 62
     7
370
    25
100
AcDbLine
 10
7002.8854354
 20
12223.5375036
 30
0.0
 11
7044.3763354
 21
12476.3014126
 31
0.0
  0
LINE
  5
EB
330
1F
100
AcDbEntity
  8
0
  6
Continuous
 62
     7
370
    25
100
AcDbLine
 10
6840.659039
 20
12044.0192444
 30
0.0
 11
7002.8854354
 21
12223.5375036
 31
0.0
  0
ARC
  5
EC
330
1F
100
AcDbEntity
  8
0
  6
Continuous
 62
     7
370
    25
100
AcDbCircle
 10
8229.4890353549
 20
10788.965395005
 30
0.0
 40
1871.89981667196
100
AcDbArc
 50
137.8966013517
 51
141.5930044952
  0
ARC
  5
ED
330
1F
100
AcDbEntity
  8
0
  6
Continuous
 62
     7
370
    25
100
AcDbCircle
 10
7714.6319757595
 20
11197.1392726003
 30
0.0
 40
1214.873404595686
100
AcDbArc
 50
141.5930355383
 51
146.7034302814
  0
ARC
  5
EE
330
1F
100
AcDbEntity
  8
0
  6
Continuous
 62
     7
370
    25
100
AcDbCircle
 10
7595.7021553467
 20
11275.2534796796
 30
0.0
 40
1072.584502964167
100
AcDbArc
 50
146.7035244556
 51
152.1685057768
  0
ARC
  5
EF
330
1F
100
AcDbEntity
  8
0
  6
Continuous
 62
     7
370
    25
100
AcDbCircle
 10
7605.769935064
 20
11269.9379724965
 30
0.0
 40
1083.969352764761
100
AcDbArc
 50
152.1684920038
 51
157.5904112009
  0
ARC
  5
F0
330
1F
100
AcDbEntity
  8
0
  6
Continuous
 62
     7
370
    25
100
AcDbCircle
 10
5575.9254440782
 20
12106.9781778518
 30
0.0
 40
1111.686577240703
100
AcDbArc
 50
333.1621689382
 51
337.59035238
  0
ARC
  5
F1
330
1F
100
AcDbEntity
  8
0
  6
Continuous
 62
     7
370
    25
100
AcDbCircle
 10
4998.4158497041
 20
12399.1807665189
 30
0.0
 40
1758.911178452787
100
AcDbArc
 50
330.0220190721
 51
333.1620896548
  0
ARC
  5
F2
330
1F
100
AcDbEntity
  8
0
  6
Continuous
 62
     7
370
    25
100
AcDbCircle
 10
5079.3718225854
 20
12352.4834176048
 30
0.0
 40
1665.45256761486
100
AcDbArc
 50
326.8457107403
 51
330.0219853799
  0
ARC
  5
F3
330
1F
100
AcDbEntity
  8
0
  6
Continuous
 62
     7
370
    25
100
AcDbCircle
 10
5938.2044874966
 20
11791.4576174426
 30
0.0
 40
639.6146200005411
100
AcDbArc
 50
320.3560275628
 51
326.845675132
  0
ARC
  5
F4
330
1F
100
AcDbEntity
  8
0
  6
Continuous
 62
     7
370
    25
100
AcDbCircle
 10
7801.0178321512
 20
10247.9945249722
 30
0.0
 40
1779.548845919431
100
AcDbArc
 50
140.3560205455
 51
145.6194312022
  0
ARC
  5
F5
330
1F
100
AcDbEntity
  8
0
  6
Continuous
 62
     7
370
    25
100
AcDbCircle
 10
7215.3775533986
 20
10648.7009704391
 30
0.0
 40
1069.943186745011
100
AcDbArc
 50
145.6195125019
 51
153.3242660152
  0
ARC
  5
F6
330
1F
100
AcDbEntity
  8
0
  6
Continuous
 62
     7
370
    25
100
AcDbCircle
 10
7091.6502374931
 20
10710.8646470973
 30
0.0
 40
931.4774097602499
100
AcDbArc
 50
153.324318897
 51
161.6395570986
  0
ARC
  5
F7
330
1F
100
AcDbEntity
  8
0
  6
Continuous
 62
     7
370
    25
100
AcDbCircle
 10
7153.9615352849
 20
10690.1834899881
 30
0.0
 40
997.1311079915209
100
AcDbArc
 50
161.6395180167
 51
169.5406827799
  0
ARC
  5
F8
330
1F
100
AcDbEntity
  8
0
  6
Continuous
 62
     7
370
    25
100
AcDbCircle
 10
5201.3596027469
 20
11050.6440032385
 30
0.0
 40
988.4635355762421
100
AcDbArc
 50
345.2125579845
 51
349.5406249499
  0
ARC
  5
F9
330
1F
100
AcDbEntity
  8
0
  6
Continuous
 62
     7
370
    25
100
AcDbCircle
 10
4478.2891652185
 20
11241.5185252819
 30
0.0
 40
1736.303050975532
100
AcDbArc
 50
342.3740216849
 51
345.2125386359
  0
ARC
  5
FA
330
1F
100
AcDbEntity
  8
0
  6
Continuous
 62
     7
370
    25
100
AcDbCircle
 10
4527.5708811934
 20
11225.8632085843
 30
0.0
 40
1684.594478522644
100
AcDbArc
 50
339.5170963775
 51
342.3739451474
  0
ARC
  5
FB
330
1F
100
AcDbEntity
  8
0
  6
Continuous
 62
     7
370
    25
100
AcDbCircle
 10
5422.5869608101
 20
10891.5352789612
 30
0.0
 40
729.1736564248579
100
AcDbArc
 50
334.1753095272
 51
339.5170588587
  0
ARC
  5
FC
330
1F
100
AcDbEntity
  8
0
  6
Continuous
 62
     7
370
    25
100
AcDbCircle
 10
6893.2462430067
 20
10179.8083347893
 30
0.0
 40
904.6543539151049
100
AcDbArc
 50
154.1752838006
 51
159.1521294891
  0
ARC
  5
FD
330
1F
100
AcDbEntity
  8
0
  6
Continuous
 62
     7
370
    25
100
AcDbCircle
 10
6416.0138773682
 20
10361.5481206673
 30
0.0
 40
393.9880435089735
100
AcDbArc
 50
159.1521035874
 51
168.4154502761
  0
ARC
  5
FE
330
1F
100
AcDbEntity
  8
0
  6
Continuous
 62
     7
370
    25
100
AcDbCircle
 10
6396.2781534702
 20
10365.5935540389
 30
0.0
 40
373.8419687322541
100
AcDbArc
 50
168.4154227847
 51
177.9741462124
  0
ARC
  5
FF
330
1F
100
AcDbEntity
  8
0
  6
Continuous
 62
     7
370
    25
100
AcDbCircle
 10
6770.7755353525
 20
10352.3467617552
 30
0.0
 40
748.5735613989272
100
AcDbArc
 50
177.9741568493
 51
183.6599399544
  0
ARC
  5
100
330
1F
100
AcDbEntity
  8
0
  6
Continuous
 62
     7
370
    25
100
AcDbCircle
 10
4691.1248764514
 20
10219.3211167707
 30
0.0
 40
1335.327272444089
100
AcDbArc
 50
0.1175408779
 51
3.6599713804
  0
ARC
  5
101
330
1F
100
AcDbEntity
  8
0
  6
Continuous
 62
     7
370
    25
100
AcDbCircle
 10
5893.0351141847
 20
10221.7866392626
 30
0.0
 40
133.4145059052871
100
AcDbArc
 50
340.8910663238
 51
0.1176139555
  0
ARC
  5
102
330
1F
100
AcDbEntity
  8
0
  6
Continuous
 62
     7
370
    25
100
AcDbCircle
 10
5927.1455232312
 20
10209.9689186198
 30
0.0
 40
97.3149418287726
100
AcDbArc
 50
317.0178271375
 51
340.8910528797
  0
ARC
  5
103
330
1F
100
AcDbEntity
  8
0
  6
Continuous
 62
     7
370
    25
100
AcDbCircle
 10
5620.3577172807
 20
10495.8742024992
 30
0.0
 40
516.6722944888694
100
AcDbArc
 50
310.0851363478
 51
317.0178729457
  0
ARC
  5
104
330
1F
100
AcDbEntity
  8
0
  6
Continuous
 62
     7
370
    25
100
AcDbCircle
 10
6155.7531189189
 20
9859.7373718837
 30
0.0
 40
314.7832385140364
100
AcDbArc
 50
130.0851968179
 51
139.7617418155
  0
ARC
  5
105
330
1F
100
AcDbEntity
  8
0
  6
Continuous
 62
     7
370
    25
100
AcDbCircle
 10
7027.569526524
 20
9121.997654524
 30
0.0
 40
1456.853174699799
100
AcDbArc
 50
139.7617627405
 51
142.8663165329
  0
ARC
  5
106
330
1F
100
AcDbEntity
  8
0
  6
Continuous
 62
     7
370
    25
100
AcDbCircle
 10
7180.1480520487
 20
9006.4640413621
 30
0.0
 40
1648.238185136635
100
AcDbArc
 50
142.8663632906
 51
145.9388372732
  0
ARC
  5
107
330
1F
100
AcDbEntity
  8
0
  6
Continuous
 62
     7
370
    25
100
AcDbCircle
 10
7032.903756803
 20
9106.0132546035
 30
0.0
 40
1470.49981467815
100
AcDbArc
 50
145.9389284107
 51
149.2859098863
  0
ARC
  5
108
330
1F
100
AcDbEntity
  8
0
  6
Continuous
 62
     7
370
    25
100
AcDbCircle
 10
2753.8370290762
 20
11648.1643815511
 30
0.0
 40
3506.742836889465
100
AcDbArc
 50
327.1925570482
 51
329.2858574352
  0
ARC
  5
109
330
1F
100
AcDbEntity
  8
0
  6
Continuous
 62
     7
370
    25
100
AcDbCircle
 10
5520.3684001441
 20
9864.7483347686
 30
0.0
 40
215.1978162309919
100
AcDbArc
 50
311.168239679
 51
327.1924575892
  0
ARC
  5
10A
330
1F
100
AcDbEntity
  8
0
  6
Continuous
 62
     7
370
    25
100
AcDbCircle
 10
5585.7331393596
 20
9789.9994728865
 30
0.0
 40
115.9005781761059
100
AcDbArc
 50
286.5033425537
 51
311.1681608385
  0
ARC
  5
10B
330
1F
100
AcDbEntity
  8
0
  6
Continuous
 62
     7
370
    25
100
AcDbCircle
 10
5467.878035822
 20
10187.7864529896
 30
0.0
 40
530.7792435342881
100
AcDbArc
 50
278.5284681819
 51
286.5033414124
  0
ARC
  5
10C
330
1F
100
AcDbEntity
  8
0
  6
Continuous
 62
     7
370
    25
100
AcDbCircle
 10
5615.5367098012
 20
9203.1294719407
 30
0.0
 40
464.8875954886297
100
AcDbArc
 50
98.5285288067
 51
105.4152414585
  0
ARC
  5
10D
330
1F
100
AcDbEntity
  8
0
  6
Continuous
 62
     7
370
    25
100
AcDbCircle
 10
5570.5304670601
 20
9366.3541587561
 30
0.0
 40
295.5717360080625
100
AcDbArc
 50
105.4152497254
 51
115.0840163687
  0
ARC
  5
10E
330
1F
100
AcDbEntity
  8
0
  6
Continuous
 62
     7
370
    25
100
AcDbCircle
 10
5546.6157079625
 20
9417.4430074163
 30
0.0
 40
239.162639578646
100
AcDbArc
 50
115.083935912
 51
125.9002168279
  0
ARC
  5
10F
330
1F
100
AcDbEntity
  8
0
  6
Continuous
 62
     7
370
    25
100
AcDbCircle
 10
5513.1366182666
 20
9463.6920685654
 30
0.0
 40
182.0677614893689
100
AcDbArc
 50
125.9001948976
 51
139.170631014
  0
ARC
  5
110
330
1F
100
AcDbEntity
  8
0
  6
Continuous
 62
     7
370
    25
100
AcDbCircle
 10
4999.0653508842
 20
9907.8857538843
 30
0.0
 40
497.3270412766381
100
AcDbArc
 50
305.9888892202
 51
319.1706981109
  0
ARC
  5
111
330
1F
100
AcDbEntity
  8
0
  6
Continuous
 62
     7
370
    25
100
AcDbCircle
 10
4982.6811463245
 20
9930.4464550333
 30
0.0
 40
525.2094263123415
100
AcDbArc
 50
293.3354612208
 51
305.9888520697
  0
ARC
  5
112
330
1F
100
AcDbEntity
  8
0
  6
Continuous
 62
     7
370
    25
100
AcDbCircle
 10
4943.8046705054
 20
10020.5629642648
 30
0.0
 40
623.3540421004102
100
AcDbArc
 50
281.8165753099
 51
293.3354644769
  0
ARC
  5
113
330
1F
100
AcDbEntity
  8
0
  6
Continuous
 62
     7
370
    25
100
AcDbCircle
 10
4865.819603139
 20
10393.3129186274
 30
0.0
 40
1004.174471185928
100
AcDbArc
 50
273.7575215582
 51
281.8166310153
  0
ARC
  5
114
330
1F
100
AcDbEntity
  8
0
  6
Continuous
 62
     7
370
    25
100
AcDbCircle
 10
5017.6220964066
 20
8081.8918179848
 30
0.0
 40
1312.226077393376
100
AcDbArc
 50
93.7574871444
 51
100.8294370351
  0
ARC
  5
115
330
1F
100
AcDbEntity
  8
0
  6
Continuous
 62
     7
370
    25
100
AcDbCircle
 10
4814.638807984
 20
9143.0041181423
 30
0.0
 40
231.8735752330637
100
AcDbArc
 50
100.8293820602
 51
126.3334176508
  0
ARC
  5
116
330
1F
100
AcDbEntity
  8
0
  6
Continuous
 62
     7
370
    25
100
AcDbCircle
 10
4773.7624120423
 20
9198.582355447
 30
0.0
 40
162.8821249870287
100
AcDbArc
 50
126.3333629513
 51
158.4349780659
  0
ARC
  5
117
330
1F
100
AcDbEntity
  8
0
  6
Continuous
 62
     7
370
    25
100
AcDbCircle
 10
5084.2996478383
 20
9075.8507045948
 30
0.0
 40
496.7929408296098
100
AcDbArc
 50
158.4349240117
 51
172.4178859922
  0
ARC
  5
118
330
1F
100
AcDbEntity
  8
0
  6
Continuous
 62
     7
370
    25
100
AcDbCircle
 10
6763.12130457
 20
8852.3820585124
 30
0.0
 40
2190.422295468104
100
AcDbArc
 50
172.4179016371
 51
174.2565983425
  0
ARC
  5
119
330
1F
100
AcDbEntity
  8
0
  6
Continuous
 62
     7
370
    25
100
AcDbCircle
 10
13874.8350465092
 20
8137.0980679619
 30
0.0
 40
9338.016543494801
100
AcDbArc
 50
174.2566021796
 51
174.8829580817
  0
ARC
  5
11A
330
1F
100
AcDbEntity
  8
0
  6
Continuous
 62
     7
370
    25
100
AcDbCircle
 10
14911.8602720292
 20
8044.2219687902
 30
0.0
 40
10379.19245947058
100
AcDbArc
 50
174.8828857903
 51
175.5053456084
  0
ARC
  5
11B
330
1F
100
AcDbEntity
  8
0
  6
Continuous
 62
     7
370
    25
100
AcDbCircle
 10
13139.0249644086
 20
8183.5784605588
 30
0.0
 40
8600.888419173074
100
AcDbArc
 50
175.5053306873
 51
176.2219839616
  0
ARC
  5
11C
330
1F
100
AcDbEntity
  8
0
  6
Continuous
 62
     7
370
    25
100
AcDbCircle
 10
-3717.9830989624
 20
9296.7216742749
 30
0.0
 40
8292.83256416267
100
AcDbArc
 50
355.3075602383
 51
356.2219960267
  0
ARC
  5
11D
330
1F
100
AcDbEntity
  8
0
  6
Continuous
 62
     7
370
    25
100
AcDbCircle
 10
4093.4642985838
 20
8655.5417346074
 30
0.0
 40
455.1146463206977
100
AcDbArc
 50
347.7385293161
 51
355.3075280936
  0
ARC
  5
11E
330
1F
100
AcDbEntity
  8
0
  6
Continuous
 62
     7
370
    25
100
AcDbCircle
 10
4523.1742266857
 20
8562.1524806033
 30
0.0
 40
15.37361449303731
100
AcDbArc
 50
284.2579792512
 51
347.7385110273
  0
ARC
  5
11F
330
1F
100
AcDbEntity
  8
0
  6
Continuous
 62
     7
370
    25
100
AcDbCircle
 10
4524.2102010768
 20
8558.0757011625
 30
0.0
 40
11.1672652982919
100
AcDbArc
 50
204.4701862127
 51
284.2579796447
  0
ARC
  5
120
330
1F
100
AcDbEntity
  8
0
  6
Continuous
 62
     7
370
    25
100
AcDbCircle
 10
4295.1064138498
 20
8453.8108663015
 30
0.0
 40
240.5462645533017
100
AcDbArc
 50
24.4702214703
 51
30.3442732924
  0
ARC
  5
121
330
1F
100
AcDbEntity
  8
0
  6
Continuous
 62
     7
370
    25
100
AcDbCircle
 10
4361.8108224851
 20
8492.8589017076
 30
0.0
 40
163.2531393709027
100
AcDbArc
 50
30.3442881335
 51
38.1982969316
  0
ARC
  5
122
330
1F
100
AcDbEntity
  8
0
  6
Continuous
 62
     7
370
    25
100
AcDbCircle
 10
4393.8584173829
 20
8518.0764090218
 30
0.0
 40
122.4735977616042
100
AcDbArc
 50
38.1982677615
 51
46.5773632699
  0
ARC
  5
123
330
1F
100
AcDbEntity
  8
0
  6
Continuous
 62
     7
370
    25
100
AcDbCircle
 10
4469.0762001127
 20
8597.5540526649
 30
0.0
 40
13.04594733513868
100
AcDbArc
 50
46.5773901874
 51
89.9999881979
  0
ARC
  5
124
330
1F
100
AcDbEntity
  8
0
  6
Continuous
 62
     7
370
    25
100
AcDbCircle
 10
4469.0762046131
 20
8597.5388902911
 30
0.0
 40
13.06110970889507
100
AcDbArc
 50
90.0000079537
 51
148.0402659275
  0
ARC
  5
125
330
1F
100
AcDbEntity
  8
0
  6
Continuous
 62
     7
370
    25
100
AcDbCircle
 10
15229.3997974957
 20
1884.2248256004
 30
0.0
 40
12695.85061181449
100
AcDbArc
 50
148.0401595497
 51
148.5122761051
  0
ARC
  5
126
330
1F
100
AcDbEntity
  8
0
  6
Continuous
 62
     7
370
    25
100
AcDbCircle
 10
8256.7690216701
 20
6155.0040014854
 30
0.0
 40
4519.229383876593
100
AcDbArc
 50
148.5122785899
 51
150.0544285157
  0
ARC
  5
127
330
1F
100
AcDbEntity
  8
0
  6
Continuous
 62
     7
370
    25
100
AcDbCircle
 10
11707.8602305395
 20
4166.8850277766
 30
0.0
 40
8502.023326017776
100
AcDbArc
 50
150.0544324635
 51
151.0153916459
  0
ARC
  5
128
330
1F
100
AcDbEntity
  8
0
  6
Continuous
 62
     7
370
    25
100
AcDbCircle
 10
-941.7912542833
 20
11174.2554083521
 30
0.0
 40
5958.852246991881
100
AcDbArc
 50
329.3678591956
 51
331.0154282486
  0
ARC
  5
129
330
1F
100
AcDbEntity
  8
0
  6
Continuous
 62
     7
370
    25
100
AcDbCircle
 10
-7519.4427452481
 20
15069.2356746669
 30
0.0
 40
13603.22078935757
100
AcDbArc
 50
328.4789129851
 51
329.3679098412
  0
ARC
  5
12A
330
1F
100
AcDbEntity
  8
0
  6
Continuous
 62
     7
370
    25
100
AcDbCircle
 10
-7792.8477598118
 20
15236.9070206005
 30
0.0
 40
13923.94494212142
100
AcDbArc
 50
327.5938469231
 51
328.4789477246
  0
ARC
  5
12B
330
1F
100
AcDbEntity
  8
0
  6
Continuous
 62
     7
370
    25
100
AcDbCircle
 10
-2467.1710674642
 20
11856.336129501
 30
0.0
 40
7615.926887211723
100
AcDbArc
 50
326.2033551403
 51
327.5937920578
  0
LINE
  5
12C
330
1F
100
AcDbEntity
  8
0
  6
Continuous
 62
     7
370
    25
100
AcDbLine
 10
3632.2711962
 20
7277.1
 30
0.0
 11
3861.7939782
 21
7620.0
 31
0.0
  0
LINE
  5
12D
330
1F
100
AcDbEntity
  8
0
  6
Continuous
 62
     7
370
    25
100
AcDbLine
 10
3632.2
 20
6552.7767344
 30
0.0
 11
3632.2711962
 21
7277.1
 31
0.0
  0
LINE
  5
12E
330
1F
100
AcDbEntity
  8
0
  6
Continuous
 62
     7
370
    25
100
AcDbLine
 10
3343.6424364
 20
5975.1383672
 30
0.0
 11
3632.2
 21
6552.7767344
 31
0.0
  0
ARC
  5
12F
330
1F
100
AcDbEntity
  8
0
  6
Continuous
 62
     7
370
    25
100
AcDbCircle
 10
18313.8308204447
 20
-1503.1603949851
 30
0.0
 40
16734.14152654049
100
AcDbArc
 50
153.4557592566
 51
154.4650751832
  0
ARC
  5
130
330
1F
100
AcDbEntity
  8
0
  6
Continuous
 62
     7
370
    25
100
AcDbCircle
 10
34629.5339102031
 20
-9297.5074948347
 30
0.0
 40
34816.01128674163
100
AcDbArc
 50
154.4651576265
 51
155.0486565843
  0
ARC
  5
131
330
1F
100
AcDbEntity
  8
0
  6
Continuous
 62
     7
370
    25
100
AcDbCircle
 10
34764.9097526531
 20
-9360.4563944931
 30
0.0
 40
34965.30690458138
100
AcDbArc
 50
155.0487130207
 51
155.6317536152
  0
ARC
  5
132
330
1F
100
AcDbEntity
  8
0
  6
Continuous
 62
     7
370
    25
100
AcDbCircle
 10
18861.0886083726
 20
-2156.7929829633
 30
0.0
 40
17506.08889414808
100
AcDbArc
 50
155.6317391776
 51
156.6101159652
  0
LINE
  5
133
330
1F
100
AcDbEntity
  8
0
  6
Continuous
 62
     7
370
    25
100
AcDbLine
 10
2532.0497238
 20
4188.2531424
 30
0.0
 11
2793.5672856
 21
4792.8765712
 31
0.0
  0
LINE
  5
134
330
1F
100
AcDbEntity
  8
0
  6
Continuous
 62
     7
370
    25
100
AcDbLine
 10
1424.7748492
 20
3359.9057008
 30
0.0
 11
2532.0497238
 21
4188.2531424
 31
0.0
  0
LINE
  5
135
330
1F
100
AcDbEntity
  8
0
  6
Continuous
 62
     7
370
    25
100
AcDbLine
 10
250.7856554
 20
2481.3272192
 30
0.0
 11
1424.7748492
 21
3359.9057008
 31
0.0
  0
LINE
  5
136
330
1F
100
AcDbEntity
  8
0
  6
Continuous
 62
     7
370
    25
100
AcDbLine
 10
250.7856554
 20
2481.3272192
 30
0.0
 11
0.0
 21
2288.3970139387
 31
0.0
  0
LINE
  5
137
330
1F
100
AcDbEntity
  8
0
  6
Continuous
 62
     7
370
    25
100
AcDbLine
 10
0.0
 20
2288.3970139387
 30
0.0
 11
0.0
 21
0.0
 31
0.0
  0
LINE
  5
138
330
1F
100
AcDbEntity
  8
0
  6
Continuous
 62
     7
370
    25
100
AcDbLine
 10
0.0
 20
0.0
 30
0.0
 11
18669.0
 21
0.0
 31
0.0
  0
LINE
  5
139
330
1F
100
AcDbEntity
  8
0
  6
Continuous
 62
     7
370
    25
100
AcDbLine
 10
18669.0
 20
0.0
 30
0.0
 11
18669.0
 21
15432.6040852
 31
0.0
  0
LINE
  5
13A
330
1F
100
AcDbEntity
  8
0
  6
Continuous
 62
     7
370
    25
100
AcDbLine
 10
18539.6558848
 20
15355.2150858
 30
0.0
 11
18669.0
 21
15432.6040852
 31
0.0
  0
LINE
  5
13B
330
1F
100
AcDbEntity
  8
0
  6
Continuous
 62
     7
370
    25
100
AcDbLine
 10
18399.4591116
 20
15257.3279562
 30
0.0
 11
18539.6558848
 21
15355.2150858
 31
0.0
  0
ARC
  5
13C
330
1F
100
AcDbEntity
  8
0
  6
Continuous
 62
     7
370
    25
100
AcDbCircle
 10
77957.8465057711
 20
-69971.3589585632
 30
0.0
 40
103976.5867020498
100
AcDbArc
 50
124.9461123487
 51
125.0561202369
  0
ARC
  5
13D
330
1F
100
AcDbEntity
  8
0
  6
Continuous
 62
     7
370
    25
100
AcDbCircle
 10
120013.5871278199
 20
-129908.3966992276
 30
0.0
 40
177196.350511985
100
AcDbArc
 50
125.0560736414
 51
125.1298706028
  0
LINE
  5
13E
330
1F
100
AcDbEntity
  8
0
  6
Continuous
 62
     7
370
    25
100
AcDbLine
 10
17569.076876
 20
14673.8070506
 30
0.0
 11
18049.188438
 21
15011.6089404
 31
0.0
  0
LINE
  5
13F
330
1F
100
AcDbEntity
  8
0
  6
Continuous
 62
     7
370
    25
100
AcDbLine
 10
17481.1472068
 20
14721.1603214
 30
0.0
 11
17569.076876
 21
14673.8070506
 31
0.0
  0
ARC
  5
140
330
1F
100
AcDbEntity
  8
0
  6
Continuous
 62
     7
370
    25
100
AcDbCircle
 10
17700.3572584749
 20
15128.2096383058
 30
0.0
 40
462.3226072221979
100
AcDbArc
 50
226.0636524033
 51
241.6960088847
  0
ARC
  5
141
330
1F
100
AcDbEntity
  8
0
  6
Continuous
 62
     7
370
    25
100
AcDbCircle
 10
18530.2929528485
 20
15989.547584409
 30
0.0
 40
1658.439789689109
100
AcDbArc
 50
220.0217580547
 51
226.0636875876
  0
ARC
  5
142
330
1F
100
AcDbEntity
  8
0
  6
Continuous
 62
     7
370
    25
100
AcDbCircle
 10
19656.1853424144
 20
16935.0085143725
 30
0.0
 40
3128.65407439912
100
AcDbArc
 50
215.6523998766
 51
220.0217049522
  0
ARC
  5
143
330
1F
100
AcDbEntity
  8
0
  6
Continuous
 62
     7
370
    25
100
AcDbCircle
 10
26603.27767302
 20
21918.2475660101
 30
0.0
 40
11678.20162358068
100
AcDbArc
 50
214.0121370917
 51
215.6523726623
  0
ARC
  5
144
330
1F
100
AcDbEntity
  8
0
  6
Continuous
 62
     7
370
    25
100
AcDbCircle
 10
6295.3392192166
 20
8214.0934305731
 30
0.0
 40
12821.10866898581
100
AcDbArc
 50
34.0121990651
 51
34.7591042025
  0
ARC
  5
145
330
1F
100
AcDbEntity
  8
0
  6
Continuous
 62
     7
370
    25
100
AcDbCircle
 10
11579.8507705985
 20
11881.3192203161
 30
0.0
 40
6388.799027078836
100
AcDbArc
 50
34.7592092953
 51
36.0169536203
  0
ARC
  5
146
330
1F
100
AcDbEntity
  8
0
  6
Continuous
 62
     7
370
    25
100
AcDbCircle
 10
-3162.98349516
 20
1163.3190542202
 30
0.0
 40
24615.88573197538
100
AcDbArc
 50
36.0170243575
 51
36.2993778161
  0
ARC
  5
147
330
1F
100
AcDbEntity
  8
0
  6
Continuous
 62
     7
370
    25
100
AcDbCircle
 10
16671.6317107469
 20
15732.9608006705
 30
0.0
 40
5.188444285648632
100
AcDbArc
 50
36.299390735
 51
134.9999439139
  0
ARC
  5
148
330
1F
100
AcDbEntity
  8
0
  6
Continuous
 62
     7
370
    25
100
AcDbCircle
 10
16680.7209072042
 20
15723.8715940215
 30
0.0
 40
18.04251639331206
100
AcDbArc
 50
134.9999609862
 51
171.3018486658
  0
ARC
  5
149
330
1F
100
AcDbEntity
  8
0
  6
Continuous
 62
     7
370
    25
100
AcDbCircle
 10
32057.406918014
 20
13371.4632585242
 30
0.0
 40
15573.62986152261
100
AcDbArc
 50
171.3020214843
 51
171.6212733613
  0
ARC
  5
14A
330
1F
100
AcDbEntity
  8
0
  6
Continuous
 62
     7
370
    25
100
AcDbCircle
 10
21967.066664535
 20
14857.657534622
 30
0.0
 40
5374.426958502315
100
AcDbArc
 50
171.6213829466
 51
172.6900560806
  0
ARC
  5
14B
330
1F
100
AcDbEntity
  8
0
  6
Continuous
 62
     7
370
    25
100
AcDbCircle
 10
26375.1124599458
 20
14292.1963290624
 30
0.0
 40
9818.593259332143
100
AcDbArc
 50
172.6900566048
 51
173.370728464
  0
ARC
  5
14C
330
1F
100
AcDbEntity
  8
0
  6
Continuous
 62
     7
370
    25
100
AcDbCircle
 10
12859.4160011675
 20
15863.0161295533
 30
0.0
 40
3788.078839732483
100
AcDbArc
 50
348.5017399335
 51
353.3706901736
  0
ARC
  5
14D
330
1F
100
AcDbEntity
  8
0
  6
Continuous
 62
     7
370
    25
100
AcDbCircle
 10
15172.1895301164
 20
15392.5508553527
 30
0.0
 40
1427.939231481673
100
AcDbArc
 50
338.4154639823
 51
348.5017132631
  0
ARC
  5
14E
330
1F
100
AcDbEntity
  8
0
  6
Continuous
 62
     7
370
    25
100
AcDbCircle
 10
15266.1576989339
 20
15355.3740993555
 30
0.0
 40
1326.884157707954
100
AcDbArc
 50
327.8686333553
 51
338.4155226189
  0
ARC
  5
14F
330
1F
100
AcDbEntity
  8
0
  6
Continuous
 62
     7
370
    25
100
AcDbCircle
 10
13909.9304957299
 20
16207.1676825287
 30
0.0
 40
2928.416091527977
100
AcDbArc
 50
322.0330778218
 51
327.8686520024
  0
ARC
  5
150
330
1F
100
AcDbEntity
  8
0
  6
Continuous
 62
     7
370
    25
100
AcDbCircle
 10
9826.0918208018
 20
19394.0153838404
 30
0.0
 40
8108.545104804889
100
AcDbArc
 50
321.0535643891
 51
322.0330870713
  0
ARC
  5
151
330
1F
100
AcDbEntity
  8
0
  6
Continuous
 62
     7
370
    25
100
AcDbCircle
 10
12707.5217052459
 20
17065.1341276767
 30
0.0
 40
4403.639426616464
100
AcDbArc
 50
319.506624011
 51
321.0535865637
  0
ARC
  5
152
330
1F
100
AcDbEntity
  8
0
  6
Continuous
 62
     7
370
    25
100
AcDbCircle
 10
7587.0787265012
 20
21437.38091033
 30
0.0
 40
11136.80199906328
100
AcDbArc
 50
318.9820285576
 51
319.5066277986
  0
ARC
  5
153
330
1F
100
AcDbEntity
  8
0
  6
Continuous
 62
     7
370
    25
100
AcDbCircle
 10
15976.786256738
 20
14139.6981154617
 30
0.0
 40
17.29811546170668
100
AcDbArc
 50
270.0000048424
 51
318.9819955107
  0
ARC
  5
154
330
1F
100
AcDbEntity
  8
0
  6
Continuous
 62
     7
370
    25
100
AcDbCircle
 10
15976.7862616626
 20
14138.89638059
 30
0.0
 40
16.49638059001109
100
AcDbArc
 50
224.114944032
 51
269.9999879735
  0
ARC
  5
155
330
1F
100
AcDbEntity
  8
0
  6
Continuous
 62
     7
370
    25
100
AcDbCircle
 10
16666.2224196353
 20
14807.3550543776
 30
0.0
 40
976.7875939633336
100
AcDbArc
 50
221.6549776637
 51
224.114934778
  0
ARC
  5
156
330
1F
100
AcDbEntity
  8
0
  6
Continuous
 62
     7
370
    25
100
AcDbCircle
 10
16554.6339258797
 20
14708.0918078072
 30
0.0
 40
827.4383922338228
100
AcDbArc
 50
218.107344135
 51
221.6550445881
  0
ARC
  5
157
330
1F
100
AcDbEntity
  8
0
  6
Continuous
 62
     7
370
    25
100
AcDbCircle
 10
16992.9220532111
 20
15051.8438534377
 30
0.0
 40
1384.450018175961
100
AcDbArc
 50
215.6945780117
 51
218.1073287391
  0
ARC
  5
158
330
1F
100
AcDbEntity
  8
0
  6
Continuous
 62
     7
370
    25
100
AcDbCircle
 10
16335.615676941
 20
14579.6151944803
 30
0.0
 40
575.0974506099363
100
AcDbArc
 50
207.0934453549
 51
215.6945435294
  0
ARC
  5
159
330
1F
100
AcDbEntity
  8
0
  6
Continuous
 62
     7
370
    25
100
AcDbCircle
 10
17003.4648337688
 20
14921.2738906617
 30
0.0
 40
1325.266205592384
100
AcDbArc
 50
202.4847134779
 51
207.0934230189
  0
ARC
  5
15A
330
1F
100
AcDbEntity
  8
0
  6
Continuous
 62
     7
370
    25
100
AcDbCircle
 10
17608.4240038107
 20
15171.6675294134
 30
0.0
 40
1979.997121117935
100
AcDbArc
 50
198.7154606802
 51
202.4847247223
  0
ARC
  5
15B
330
1F
100
AcDbEntity
  8
0
  6
Continuous
 62
     7
370
    25
100
AcDbCircle
 10
19928.3047768532
 20
15957.6007341368
 30
0.0
 40
4429.392516602082
100
AcDbArc
 50
196.6507948616
 51
198.7154497161
  0
ARC
  5
15C
330
1F
100
AcDbEntity
  8
0
  6
Continuous
 62
     7
370
    25
100
AcDbCircle
 10
6566.2609541706
 20
11961.2987643963
 30
0.0
 40
9517.458187146183
100
AcDbArc
 50
16.6508039005
 51
17.9316950104
  0
ARC
  5
15D
330
1F
100
AcDbEntity
  8
0
  6
Continuous
 62
     7
370
    25
100
AcDbCircle
 10
15037.9091632875
 20
14702.7430206729
 30
0.0
 40
613.2827627003512
100
AcDbArc
 50
17.9316725699
 51
27.4068883248
  0
ARC
  5
15E
330
1F
100
AcDbEntity
  8
0
  6
Continuous
 62
     7
370
    25
100
AcDbCircle
 10
15280.4719771889
 20
14828.5130979212
 30
0.0
 40
340.0524001515938
100
AcDbArc
 50
27.4068199202
 51
41.6779133974
  0
ARC
  5
15F
330
1F
100
AcDbEntity
  8
0
  6
Continuous
 62
     7
370
    25
100
AcDbCircle
 10
14469.0527798492
 20
14106.1254412337
 30
0.0
 40
1426.443232378184
100
AcDbArc
 50
41.6779259567
 51
46.596815338
  0
ARC
  5
160
330
1F
100
AcDbEntity
  8
0
  6
Continuous
 62
     7
370
    25
100
AcDbCircle
 10
13810.1548910521
 20
13409.4386958618
 30
0.0
 40
2385.358686961146
100
AcDbArc
 50
46.5968043892
 51
50.0056518648
  0
ARC
  5
161
330
1F
100
AcDbEntity
  8
0
  6
Continuous
 62
     7
370
    25
100
AcDbCircle
 10
15321.1367172867
 20
15210.5175328903
 30
0.0
 40
34.41184443085292
100
AcDbArc
 50
50.0056137451
 51
120.5630663457
  0
ARC
  5
162
330
1F
100
AcDbEntity
  8
0
  6
Continuous
 62
     7
370
    25
100
AcDbCircle
 10
15335.6184464514
 20
15185.9943355365
 30
0.0
 40
62.89179681934768
100
AcDbArc
 50
120.5631286479
 51
165.2518942357
  0
ARC
  5
163
330
1F
100
AcDbEntity
  8
0
  6
Continuous
 62
     7
370
    25
100
AcDbCircle
 10
22716.0293226326
 20
13243.1562432797
 30
0.0
 40
7694.738529686645
100
AcDbArc
 50
165.251901583
 51
166.7147575589
  0
ARC
  5
164
330
1F
100
AcDbEntity
  8
0
  6
Continuous
 62
     7
370
    25
100
AcDbCircle
 10
5043.2264901027
 20
17416.0191424408
 30
0.0
 40
10464.02642646287
100
AcDbArc
 50
345.8691004297
 51
346.714782297
  0
ARC
  5
165
330
1F
100
AcDbEntity
  8
0
  6
Continuous
 62
     7
370
    25
100
AcDbCircle
 10
14925.1582430164
 20
14928.1828278214
 30
0.0
 40
273.7416072059024
100
AcDbArc
 50
334.1731096715
 51
345.8691605245
  0
ARC
  5
166
330
1F
100
AcDbEntity
  8
0
  6
Continuous
 62
     7
370
    25
100
AcDbCircle
 10
15158.2597633436
 20
14815.3621230371
 30
0.0
 40
14.77282490411919
100
AcDbArc
 50
252.3189635012
 51
334.1732140142
  0
ARC
  5
167
330
1F
100
AcDbEntity
  8
0
  6
Continuous
 62
     7
370
    25
100
AcDbCircle
 10
15164.5833647455
 20
14835.1992088828
 30
0.0
 40
35.59343751607956
100
AcDbArc
 50
209.2326625435
 51
252.3189431187
  0
ARC
  5
168
330
1F
100
AcDbEntity
  8
0
  6
Continuous
 62
     7
370
    25
100
AcDbCircle
 10
15066.6862619793
 20
14780.4132741497
 30
0.0
 40
76.59097037818938
100
AcDbArc
 50
29.2325517721
 51
47.7441044193
  0
ARC
  5
169
330
1F
100
AcDbEntity
  8
0
  6
Continuous
 62
     7
370
    25
100
AcDbCircle
 10
14830.4140475561
 20
14520.3522627896
 30
0.0
 40
427.9544416412878
100
AcDbArc
 50
47.744046871
 51
52.924307238
  0
ARC
  5
16A
330
1F
100
AcDbEntity
  8
0
  6
Continuous
 62
     7
370
    25
100
AcDbCircle
 10
14785.4687361877
 20
14460.8727749316
 30
0.0
 40
502.5057024577752
100
AcDbArc
 50
52.9242178957
 51
58.0073533338
  0
ARC
  5
16B
330
1F
100
AcDbEntity
  8
0
  6
Continuous
 62
     7
370
    25
100
AcDbCircle
 10
14776.899802971
 20
14447.1567210877
 30
0.0
 40
518.6784186562612
100
AcDbArc
 50
58.007293468
 51
62.9710818619
  0
ARC
  5
16C
330
1F
100
AcDbEntity
  8
0
  6
Continuous
 62
     7
370
    25
100
AcDbCircle
 10
14130.7682921496
 20
13180.633448421
 30
0.0
 40
1940.496666352714
100
AcDbArc
 50
62.9710746953
 51
65.0293129417
  0
ARC
  5
16D
330
1F
100
AcDbEntity
  8
0
  6
Continuous
 62
     7
370
    25
100
AcDbCircle
 10
14922.1812210746
 20
14880.0932861648
 30
0.0
 40
65.79717998866246
100
AcDbArc
 50
65.0293544848
 51
88.8338863686
  0
ARC
  5
16E
330
1F
100
AcDbEntity
  8
0
  6
Continuous
 62
     7
370
    25
100
AcDbCircle
 10
14922.9574279335
 20
14918.2250327198
 30
0.0
 40
27.65753404877913
100
AcDbArc
 50
88.8339328904
 51
133.1890872786
  0
ARC
  5
16F
330
1F
100
AcDbEntity
  8
0
  6
Continuous
 62
     7
370
    25
100
AcDbCircle
 10
15033.1993538646
 20
14800.7847891572
 30
0.0
 40
188.7335814333578
100
AcDbArc
 50
133.1891496928
 51
143.9434594295
  0
ARC
  5
170
330
1F
100
AcDbEntity
  8
0
  6
Continuous
 62
     7
370
    25
100
AcDbCircle
 10
14741.9075551845
 20
15012.8605215669
 30
0.0
 40
171.5815976189915
100
AcDbArc
 50
312.745459309
 51
323.9433651327
  0
ARC
  5
171
330
1F
100
AcDbEntity
  8
0
  6
Continuous
 62
     7
370
    25
100
AcDbCircle
 10
14835.1272130563
 20
14912.0000387963
 30
0.0
 40
34.23990111549517
100
AcDbArc
 50
275.7810241623
 51
312.7454483848
  0
ARC
  5
172
330
1F
100
AcDbEntity
  8
0
  6
Continuous
 62
     7
370
    25
100
AcDbCircle
 10
14832.5358486747
 20
14937.5953361568
 30
0.0
 40
59.96604377870667
100
AcDbArc
 50
250.6603320385
 51
275.7810745338
  0
ARC
  5
173
330
1F
100
AcDbEntity
  8
0
  6
Continuous
 62
     7
370
    25
100
AcDbCircle
 10
15073.6582344088
 20
15624.6090920666
 30
0.0
 40
788.0648734106861
100
AcDbArc
 50
246.8429881032
 51
250.6603674163
  0
ARC
  5
174
330
1F
100
AcDbEntity
  8
0
  6
Continuous
 62
     7
370
    25
100
AcDbCircle
 10
14912.8894274684
 20
15248.7292258909
 30
0.0
 40
379.2467193602492
100
AcDbArc
 50
239.1204071511
 51
246.8430167048
  0
ARC
  5
175
330
1F
100
AcDbEntity
  8
0
  6
Continuous
 62
     7
370
    25
100
AcDbCircle
 10
14753.3379051467
 20
14981.9223736799
 30
0.0
 40
68.37281459826538
100
AcDbArc
 50
211.6722423846
 51
239.1203749624
  0
ARC
  5
176
330
1F
100
AcDbEntity
  8
0
  6
Continuous
 62
     7
370
    25
100
AcDbCircle
 10
14760.1065428977
 20
14986.098276468
 30
0.0
 40
76.32596624397999
100
AcDbArc
 50
186.1876963427
 51
211.6722650754
  0
ARC
  5
177
330
1F
100
AcDbEntity
  8
0
  6
Continuous
 62
     7
370
    25
100
AcDbCircle
 10
15200.4930974527
 20
15033.8430342803
 30
0.0
 40
519.2930974527682
100
AcDbArc
 50
180.00001689
 51
186.187603145
  0
ARC
  5
178
330
1F
100
AcDbEntity
  8
0
  6
Continuous
 62
     7
370
    25
100
AcDbCircle
 10
14294.198972469
 20
15033.8426374299
 30
0.0
 40
387.0010275310692
100
AcDbArc
 50
0.0000360903
 51
15.4603824339
  0
ARC
  5
179
330
1F
100
AcDbEntity
  8
0
  6
Continuous
 62
     7
370
    25
100
AcDbCircle
 10
11675.1293200849
 20
14309.4579158385
 30
0.0
 40
3104.400348373277
100
AcDbArc
 50
15.4604234323
 51
18.7957190529
  0
ARC
  5
17A
330
1F
100
AcDbEntity
  8
0
  6
Continuous
 62
     7
370
    25
100
AcDbCircle
 10
6317.4192655506
 20
12485.9901199318
 30
0.0
 40
8763.913740102862
100
AcDbArc
 50
18.795726532
 51
20.7141736032
  0
ARC
  5
17B
330
1F
100
AcDbEntity
  8
0
  6
Continuous
 62
     7
370
    25
100
AcDbCircle
 10
-77666.4280585699
 20
-19272.5658498621
 30
0.0
 40
98551.95575376748
100
AcDbArc
 50
20.7141520263
 51
21.0395918352
  0
ARC
  5
17C
330
1F
100
AcDbEntity
  8
0
  6
Continuous
 62
     7
370
    25
100
AcDbCircle
 10
27587.3245018919
 20
21214.0367744749
 30
0.0
 40
14220.01514379161
100
AcDbArc
 50
199.922340818
 51
201.0395996677
  0
ARC
  5
17D
330
1F
100
AcDbEntity
  8
0
  6
Continuous
 62
     7
370
    25
100
AcDbCircle
 10
17894.1755037418
 20
17700.8928947737
 30
0.0
 40
3909.859111034404
100
AcDbArc
 50
197.0022821694
 51
199.9223754324
  0
ARC
  5
17E
330
1F
100
AcDbEntity
  8
0
  6
Continuous
 62
     7
370
    25
100
AcDbCircle
 10
16424.728860407
 20
17251.5725835565
 30
0.0
 40
2373.251750751031
100
AcDbArc
 50
193.1110947672
 51
197.002250174
  0
ARC
  5
17F
330
1F
100
AcDbEntity
  8
0
  6
Continuous
 62
     7
370
    25
100
AcDbCircle
 10
15978.9868037568
 20
17147.7540060615
 30
0.0
 40
1915.57907503197
100
AcDbArc
 50
188.5417842634
 51
193.1110901107
  0
ARC
  5
180
330
1F
100
AcDbEntity
  8
0
  6
Continuous
 62
     7
370
    25
100
AcDbCircle
 10
12090.9146326976
 20
16563.7759014262
 30
0.0
 40
2016.104487268679
100
AcDbArc
 50
8.5418604551
 51
13.2800046179
  0
ARC
  5
181
330
1F
100
AcDbEntity
  8
0
  6
Continuous
 62
     7
370
    25
100
AcDbCircle
 10
12949.8210935267
 20
16766.4961302687
 30
0.0
 40
1133.599076726722
100
AcDbArc
 50
13.280013737
 51
20.5717634214
  0
ARC
  5
182
330
1F
100
AcDbEntity
  8
0
  6
Continuous
 62
     7
370
    25
100
AcDbCircle
 10
11589.6491405563
 20
16256.0071287522
 30
0.0
 40
2586.412472285848
100
AcDbArc
 50
20.571739785
 51
24.8054162475
  0
ARC
  5
183
330
1F
100
AcDbEntity
  8
0
  6
Continuous
 62
     7
370
    25
100
AcDbCircle
 10
-15975.4722422879
 20
3516.0052215541
 30
0.0
 40
32953.22931973083
100
AcDbArc
 50
24.8053616952
 51
25.4628862568
  0
ARC
  5
184
330
1F
100
AcDbEntity
  8
0
  6
Continuous
 62
     7
370
    25
100
AcDbCircle
 10
159464.8548164189
 20
87057.3931705293
 30
0.0
 40
161362.1634285247
100
AcDbArc
 50
205.3739947851
 51
205.4629178304
  0
ARC
  5
185
330
1F
100
AcDbEntity
  8
0
  6
Continuous
 62
     7
370
    25
100
AcDbCircle
 10
124289.3521506131
 20
70374.3700656643
 30
0.0
 40
122430.9516864177
100
AcDbArc
 50
205.2646629336
 51
205.3739832726
  0
ARC
  5
186
330
1F
100
AcDbEntity
  8
0
  6
Continuous
 62
     7
370
    25
100
AcDbCircle
 10
126501.4616018857
 20
71418.1300693606
 30
0.0
 40
124876.9408783526
100
AcDbArc
 50
205.1744982615
 51
205.2645672222
  0
ARC
  5
187
330
1F
100
AcDbEntity
  8
0
  6
Continuous
 62
     7
370
    25
100
AcDbCircle
 10
19075.5196033925
 20
20925.6982082523
 30
0.0
 40
6176.398800775717
100
AcDbArc
 50
204.3725048996
 51
205.1744133571
  0
ARC
  5
188
330
1F
100
AcDbEntity
  8
0
  6
Continuous
 62
     7
370
    25
100
AcDbCircle
 10
12811.3276482885
 20
18087.7590124382
 30
0.0
 40
700.6645063001532
100
AcDbArc
 50
24.3724701695
 51
35.444165302
  0
ARC
  5
189
330
1F
100
AcDbEntity
  8
0
  6
Continuous
 62
     7
370
    25
100
AcDbCircle
 10
12704.1720254716
 20
18011.4836890005
 30
0.0
 40
832.1949304103726
100
AcDbArc
 50
35.4441318328
 51
45.1758109955
  0
ARC
  5
18A
330
1F
100
AcDbEntity
  8
0
  6
Continuous
 62
     7
370
    25
100
AcDbCircle
 10
12820.0052050012
 20
18128.0309591676
 30
0.0
 40
667.8763627964478
100
AcDbArc
 50
45.1757483043
 51
55.161807756
  0
ARC
  5
18B
330
1F
100
AcDbEntity
  8
0
  6
Continuous
 62
     7
370
    25
100
AcDbCircle
 10
13177.476043799
 20
18641.6332525831
 30
0.0
 40
42.11864898673232
100
AcDbArc
 50
55.1617826182
 51
129.6901821631
  0
ARC
  5
18C
330
1F
100
AcDbEntity
  8
0
  6
Continuous
 62
     7
370
    25
100
AcDbCircle
 10
13115.7643071066
 20
18715.9913208536
 30
0.0
 40
54.51188843546073
100
AcDbArc
 50
281.5790060041
 51
309.6901819075
  0
ARC
  5
18D
330
1F
100
AcDbEntity
  8
0
  6
Continuous
 62
     7
370
    25
100
AcDbCircle
 10
13099.7801639779
 20
18794.0067306832
 30
0.0
 40
134.1479167292246
100
AcDbArc
 50
267.230382859
 51
281.5788669169
  0
ARC
  5
18E
330
1F
100
AcDbEntity
  8
0
  6
Continuous
 62
     7
370
    25
100
AcDbCircle
 10
13107.5960538254
 20
18955.5709145747
 30
0.0
 40
295.9010423578123
100
AcDbArc
 50
258.0530773373
 51
267.230390575
  0
ENDSEC
  0
SECTION
  2
OBJECTS
  0
DICTIONARY
  5
C
330
0
100
AcDbDictionary
281
     1
  3
ACAD_GROUP
350
D
  3
ACAD_LAYOUT
350
1A
  3
ACAD_MLINESTYLE
350
17
  3
ACAD_PLOTSETTINGS
350
19
  3
ACAD_PLOTSTYLENAME
350
E
  3
ACAD_SCALELIST
350
47
  3
DWGPROPS
350
18F
  0
DICTIONARY
  5
D
102
{ACAD_REACTORS
330
C
102
}
330
C
100
AcDbDictionary
281
     1
  0
DICTIONARY
  5
1A
102
{ACAD_REACTORS
330
C
102
}
330
C
100
AcDbDictionary
281
     1
  3
Layout1
350
1E
  3
Layout2
350
26
  3
Model
350
22
  0
DICTIONARY
  5
17
102
{ACAD_REACTORS
330
C
102
}
330
C
100
AcDbDictionary
281
     1
  3
Standard
350
18
  0
DICTIONARY
  5
19
102
{ACAD_REACTORS
330
C
102
}
330
C
100
AcDbDictionary
281
     1
  0
ACDBDICTIONARYWDFLT
  5
E
102
{ACAD_REACTORS
330
C
102
}
330
C
100
AcDbDictionary
281
     1
  3
Normal
350
F
100
AcDbDictionaryWithDefault
340
F
  0
DICTIONARY
  5
47
102
{ACAD_REACTORS
330
C
102
}
330
C
100
AcDbDictionary
281
     1
  3
A0
350
48
  3
A1
350
49
  3
A2
350
4A
  3
A3
350
4B
  3
A4
350
4C
  3
A5
350
4D
  3
A6
350
4E
  3
A7
350
4F
  3
A8
350
50
  3
A9
350
51
  3
B0
350
52
  3
B1
350
53
  3
B2
350
54
  3
B3
350
55
  3
B4
350
56
  3
B5
350
57
  3
B6
350
58
  0
XRECORD
  5
18F
102
{ACAD_REACTORS
330
C
102
}
330
C
100
AcDbXrecord
280
     1
  1
DWGPROPS COOKIE
  2

  3

  4

  6

  7

  8
SofiaKwok
  9

300
=
301
=
302
=
303
=
304
=
305
=
306
=
307
=
308
=
309
=
 40
0.0
 41
2461018.917190081
 42
2461018.917217454
  1

 90
        0
  0
LAYOUT
  5
1E
102
{ACAD_REACTORS
330
1A
102
}
330
1A
100
AcDbPlotSettings
  1

  2
none_device
  4

  6

 40
0.0
 41
0.0
 42
0.0
 43
0.0
 44
0.0
 45
0.0
 46
0.0
 47
0.0
 48
0.0
 49
0.0
140
0.0
141
0.0
142
1.0
143
1.0
 70
   688
 72
     1
 73
     0
 74
     5
  7

 75
    16
147
1.0
148
0.0
149
0.0
100
AcDbLayout
  1
Layout1
 70
     1
 71
     1
 10
0.0
 20
0.0
 11
420.0
 21
297.0
 12
0.0
 22
0.0
 32
0.0
 14
1.0000000000E+20
 24
1.0000000000E+20
 34
1.0000000000E+20
 15
-1.0000000000E+20
 25
-1.0000000000E+20
 35
-1.0000000000E+20
146
0.0
 13
0.0
 23
0.0
 33
0.0
 16
1.0
 26
0.0
 36
0.0
 17
0.0
 27
1.0
 37
0.0
 76
     0
330
1B
  0
LAYOUT
  5
26
102
{ACAD_REACTORS
330
1A
102
}
330
1A
100
AcDbPlotSettings
  1

  2
none_device
  4

  6

 40
0.0
 41
0.0
 42
0.0
 43
0.0
 44
0.0
 45
0.0
 46
0.0
 47
0.0
 48
0.0
 49
0.0
140
0.0
141
0.0
142
1.0
143
1.0
 70
   688
 72
     1
 73
     0
 74
     5
  7

 75
    16
147
1.0
148
0.0
149
0.0
100
AcDbLayout
  1
Layout2
 70
     1
 71
     2
 10
0.0
 20
0.0
 11
0.0
 21
0.0
 12
0.0
 22
0.0
 32
0.0
 14
0.0
 24
0.0
 34
0.0
 15
0.0
 25
0.0
 35
0.0
146
0.0
 13
0.0
 23
0.0
 33
0.0
 16
1.0
 26
0.0
 36
0.0
 17
0.0
 27
1.0
 37
0.0
 76
     0
330
23
  0
LAYOUT
  5
22
102
{ACAD_REACTORS
330
1A
102
}
330
1A
100
AcDbPlotSettings
  1

  2
none_device
  4
ANSI_A_(11.00_x_8.50_Inches)
  6

 40
6.35
 41
19.05
 42
6.35000508
 43
19.05000254
 44
279.4
 45
215.9
 46
26.7510424984
 47
-17.97050127
 48
0.0
 49
0.0
140
0.0
141
0.0
142
0.0004496019
143
1.0
 70
  1696
 72
     0
 73
     0
 74
     0
  7

 75
     0
147
0.0179189148
148
-1300.4909072572
149
0.0
100
AcDbLayout
  1
Model
 70
     1
 71
     0
 10
0.0
 20
0.0
 11
420.0
 21
297.0
 12
0.0
 22
0.0
 32
0.0
 14
0.0
 24
0.0
 34
0.0
 15
18669.0
 25
18716.5565105018
 35
0.0
146
0.0
 13
0.0
 23
0.0
 33
0.0
 16
1.0
 26
0.0
 36
0.0
 17
0.0
 27
1.0
 37
0.0
 76
     0
330
1F
331
29
  0
MLINESTYLE
  5
18
102
{ACAD_REACTORS
330
17
102
}
330
17
100
AcDbMlineStyle
  2
Standard
 70
     0
  3

 62
   256
 51
90.0
 52
90.0
 71
     2
 49
0.5
 62
   256
  6
BYLAYER
 49
-0.5
 62
   256
  6
BYLAYER
  0
ACDBPLACEHOLDER
  5
F
102
{ACAD_REACTORS
330
E
102
}
330
E
  0
SCALE
  5
48
102
{ACAD_REACTORS
330
47
102
}
330
47
100
AcDbScale
 70
     0
300
1:1
140
1.0
141
1.0
290
     1
  0
SCALE
  5
49
102
{ACAD_REACTORS
330
47
102
}
330
47
100
AcDbScale
 70
     0
300
1:2
140
1.0
141
2.0
290
     0
  0
SCALE
  5
4A
102
{ACAD_REACTORS
330
47
102
}
330
47
100
AcDbScale
 70
     0
300
1:4
140
1.0
141
4.0
290
     0
  0
SCALE
  5
4B
102
{ACAD_REACTORS
330
47
102
}
330
47
100
AcDbScale
 70
     0
300
1:5
140
1.0
141
5.0
290
     0
  0
SCALE
  5
4C
102
{ACAD_REACTORS
330
47
102
}
330
47
100
AcDbScale
 70
     0
300
1:8
140
1.0
141
8.0
290
     0
  0
SCALE
  5
4D
102
{ACAD_REACTORS
330
47
102
}
330
47
100
AcDbScale
 70
     0
300
1:10
140
1.0
141
10.0
290
     0
  0
SCALE
  5
4E
102
{ACAD_REACTORS
330
47
102
}
330
47
100
AcDbScale
 70
     0
300
1:16
140
1.0
141
16.0
290
     0
  0
SCALE
  5
4F
102
{ACAD_REACTORS
330
47
102
}
330
47
100
AcDbScale
 70
     0
300
1:20
140
1.0
141
20.0
290
     0
  0
SCALE
  5
50
102
{ACAD_REACTORS
330
47
102
}
330
47
100
AcDbScale
 70
     0
300
1:30
140
1.0
141
30.0
290
     0
  0
SCALE
  5
51
102
{ACAD_REACTORS
330
47
102
}
330
47
100
AcDbScale
 70
     0
300
1:40
140
1.0
141
40.0
290
     0
  0
SCALE
  5
52
102
{ACAD_REACTORS
330
47
102
}
330
47
100
AcDbScale
 70
     0
300
1:50
140
1.0
141
50.0
290
     0
  0
SCALE
  5
53
102
{ACAD_REACTORS
330
47
102
}
330
47
100
AcDbScale
 70
     0
300
1:100
140
1.0
141
100.0
290
     0
  0
SCALE
  5
54
102
{ACAD_REACTORS
330
47
102
}
330
47
100
AcDbScale
 70
     0
300
2:1
140
2.0
141
1.0
290
     0
  0
SCALE
  5
55
102
{ACAD_REACTORS
330
47
102
}
330
47
100
AcDbScale
 70
     0
300
4:1
140
4.0
141
1.0
290
     0
  0
SCALE
  5
56
102
{ACAD_REACTORS
330
47
102
}
330
47
100
AcDbScale
 70
     0
300
8:1
140
8.0
141
1.0
290
     0
  0
SCALE
  5
57
102
{ACAD_REACTORS
330
47
102
}
330
47
100
AcDbScale
 70
     0
300
10:1
140
10.0
141
1.0
290
     0
  0
SCALE
  5
58
102
{ACAD_REACTORS
330
47
102
}
330
47
100
AcDbScale
 70
     0
300
100:1
140
100.0
141
1.0
290
     0
  0
ENDSEC
  0
EOF
